<svg width="1921" height="979" viewBox="0 0 1921 979" fill="none" xmlns="http://www.w3.org/2000/svg">
<rect width="1921" height="979" fill="#34A853"/>
<path d="M740.433 858.125C730.983 863.307 721.154 868.68 711.353 874.052C707.901 875.934 704.479 877.816 701.027 879.725C697.019 881.907 696.755 881.907 693.099 879.016C676.979 866.252 660.86 853.489 644.741 840.725C628.182 827.607 611.595 814.517 595.037 801.371C593.75 800.335 592.463 800.09 590.824 800.117C587.723 800.171 584.593 800.117 581.551 799.681C579.766 799.435 578.391 799.599 576.87 800.417C549.341 814.953 521.754 829.462 494.196 843.971C491.417 845.444 488.638 846.916 485.508 848.553C486.502 849.262 487.204 849.807 487.936 850.325C490.686 852.234 493.202 854.362 495.103 857.062C499.14 862.789 499.082 869.307 494.957 874.952C492.558 878.252 489.34 880.734 485.742 882.807C478.75 886.816 471.085 889.134 463.069 890.388C448.471 892.652 433.932 892.325 419.685 888.261C415.326 887.034 411.172 885.179 406.637 883.516C401.752 886.188 396.544 889.025 391.337 891.888C383.116 896.388 374.867 900.915 366.646 905.415C363.165 907.324 362.697 907.243 359.713 904.87C329.551 881.007 299.36 857.143 269.169 833.28C266.566 831.235 263.933 829.189 261.388 827.089C260.539 826.38 259.662 826.053 258.492 826.135C254.688 826.407 250.915 826.38 247.141 825.698C246.058 825.507 244.683 826.026 243.63 826.571C230.232 833.416 216.833 840.344 203.464 847.216C181.815 858.371 160.167 869.525 138.518 880.679C137.611 881.143 136.704 881.661 135.505 882.316C136.47 883.025 137.202 883.57 137.962 884.061C140.742 885.943 143.257 888.07 145.159 890.77C149.43 896.743 149.255 903.534 144.662 909.315C141.941 912.752 138.401 915.261 134.481 917.388C127.987 920.879 120.936 922.979 113.622 924.152C98.9367 926.497 84.3093 926.142 69.9453 922.188C63.363 920.361 57.1318 917.797 51.8952 913.543C50.2277 912.179 48.6479 910.624 47.3607 908.961C42.8555 903.097 42.8847 896.279 47.4192 890.443C48.6479 888.834 50.1692 887.361 51.7489 886.025C55.4935 882.888 59.911 880.761 64.5624 879.043C65.0013 878.879 65.4693 878.716 65.9667 878.661C67.7219 878.443 69.2139 879.234 69.7113 880.625C70.2964 882.179 69.6527 883.734 68.0145 884.525C66.7273 885.152 65.3523 885.616 64.0066 886.188C60.3498 887.77 57.0147 889.788 54.2648 892.57C49.9644 896.988 49.7596 901.652 53.7967 906.315C56.6929 909.643 60.5253 911.77 64.6502 913.543C71.7883 916.624 79.3946 918.233 87.1763 918.861C98.8196 919.788 110.346 919.161 121.55 915.752C125.909 914.415 130.093 912.724 133.867 910.243C136.441 908.552 138.694 906.588 140.186 903.915C141.795 901.025 141.765 898.188 140.127 895.325C138.664 892.761 136.5 890.825 133.954 889.27C131.848 887.988 129.596 886.87 127.343 885.779C125.939 885.098 124.886 884.279 124.769 882.752C124.651 881.088 125.588 880.052 127.08 879.289C133.72 875.879 140.361 872.443 147.031 869.007C176.608 853.789 206.213 838.544 235.79 823.326C236.785 822.807 237.779 822.235 238.774 821.717C235.965 816.671 236.17 814.899 240.178 810.562C239.593 810.044 239.037 809.471 238.394 808.953C207.413 784.435 176.403 759.917 145.422 735.4C144.311 734.527 143.14 733.681 142.087 732.727C139.893 730.763 140.098 728.554 142.731 727.136C145.276 725.772 147.909 724.6 150.483 723.345C160.605 718.491 170.728 713.636 180.85 708.755C181.698 708.345 182.488 707.882 183.775 707.2C182.78 706.436 181.903 705.973 181.318 705.291C179.533 703.164 177.515 701.118 176.198 698.746C173.653 694.246 174.092 689.637 176.578 685.137C178.275 682.082 180.762 679.682 183.629 677.582C187.052 675.128 190.826 673.246 194.833 671.8C195.535 671.555 196.325 671.337 197.086 671.31C198.636 671.255 199.748 671.991 200.216 673.273C200.743 674.637 200.304 676.028 198.988 676.873C198.344 677.282 197.583 677.5 196.91 677.828C194.57 678.946 192.171 679.955 189.948 681.264C188.163 682.328 186.467 683.609 185.004 685.055C180.148 689.855 180.206 694.982 185.121 699.782C189.626 704.2 195.36 706.627 201.445 708.427C212.854 711.809 224.556 712.464 236.404 711.373C243.835 710.691 251.061 709.245 257.789 706.273C260.832 704.936 263.845 703.273 266.449 701.309C273.821 695.691 273.762 688.873 266.332 683.255C264.079 681.564 261.446 680.309 258.96 678.891C258.228 678.455 257.351 678.209 256.648 677.719C254.747 676.382 254.718 673.955 256.531 672.564C257.117 672.1 257.848 671.773 258.521 671.419C289.092 655.601 319.663 639.755 350.205 623.937C351.053 623.501 351.872 623.01 352.838 622.465C349.444 618.374 350.029 614.638 354.125 611.256C353.13 610.438 352.34 609.756 351.551 609.129C320.716 584.72 289.852 560.338 259.018 535.93C258.053 535.166 257.058 534.43 256.122 533.611C253.635 531.457 253.928 529.275 256.941 527.748C260.452 525.975 264.021 524.312 267.56 522.593C276.659 518.23 285.728 513.866 294.826 509.475C295.674 509.066 296.464 508.63 297.429 508.112C296.084 506.83 294.855 505.794 293.743 504.676C286.722 497.585 286.693 488.748 293.714 481.658C298.102 477.212 303.631 474.376 309.629 472.276C311.53 471.621 313.373 472.331 314.046 473.803C314.807 475.467 314.075 477.185 312.115 478.085C310.272 478.93 308.341 479.585 306.557 480.485C303.193 482.176 300.062 484.167 297.722 487.085C294.504 491.121 294.475 495.103 297.722 499.139C300.53 502.657 304.451 504.894 308.605 506.748C314.982 509.612 321.799 511.166 328.761 511.985C339.673 513.294 350.556 512.885 361.263 510.43C367.143 509.094 372.906 507.294 377.821 503.885C380.074 502.33 382.18 500.503 383.848 498.43C386.568 495.021 386.451 491.339 383.935 487.767C381.829 484.794 378.874 482.776 375.627 481.03C374.106 480.212 372.468 479.585 370.976 478.767C369.308 477.84 368.811 476.285 369.513 474.812C370.303 473.231 372.058 472.44 373.901 473.176C380.162 475.685 385.866 478.985 389.699 484.439C393.619 490.058 393.706 495.894 389.903 501.621C387.592 505.085 384.345 507.675 380.688 509.83C374.428 513.512 367.553 515.775 360.356 517.139C344.617 520.112 328.995 519.757 313.578 515.366C310.974 514.63 308.488 513.594 305.943 512.639C305.006 512.285 304.217 512.094 303.222 512.585C290.438 518.775 277.624 524.939 264.84 531.102C264.694 531.184 264.606 531.348 264.313 531.702C265.308 532.521 266.303 533.339 267.326 534.157C293.773 555.102 320.248 576.02 346.694 596.938C351.755 600.947 356.787 604.929 361.848 608.938C362.287 609.292 362.755 609.62 363.135 610.056C364.715 611.91 363.984 614.365 361.556 615.074C360.064 615.51 358.513 615.756 357.489 617.419C359.508 619.792 362.521 620.256 365.417 620.528C370.098 620.965 374.72 620.719 378.962 617.419C378.143 616.765 377.558 616.219 376.914 615.783C376.388 615.401 375.686 615.183 375.188 614.774C374.194 613.929 373.696 612.865 374.077 611.583C374.457 610.329 375.422 609.647 376.739 609.292C378.202 608.883 379.752 608.556 381.068 607.874C388.587 604.056 396.076 600.129 403.536 596.256C404.384 595.82 405.204 595.356 406.169 594.811C405.087 593.665 404.092 592.683 403.156 591.647C397.363 585.102 397.276 577.302 402.951 570.702C407.368 565.575 413.336 562.547 419.743 560.229C421.849 559.466 423.663 560.311 424.365 561.947C425.067 563.584 424.219 565.111 422.171 566.12C418.895 567.729 415.56 569.202 412.459 571.084C410.616 572.202 409.007 573.784 407.69 575.447C404.706 579.184 404.677 583.111 407.749 586.765C409.416 588.729 411.493 590.474 413.658 591.947C419.655 595.929 426.559 597.865 433.668 599.12C447.886 601.601 461.958 601.22 475.854 597.238C480.154 596.011 484.337 594.456 487.965 591.92C489.984 590.529 491.944 588.947 493.523 587.147C496.975 583.165 496.888 578.993 493.523 574.929C491.476 572.42 488.813 570.593 485.917 569.038C484.484 568.275 482.933 567.675 481.5 566.938C479.627 565.956 478.955 564.129 479.774 562.575C480.534 561.157 482.436 560.475 484.308 561.211C490.013 563.502 495.191 566.529 499.023 571.193C504.318 577.656 504.143 585.156 498.614 591.511C494.957 595.711 490.218 598.52 485.039 600.729C477.638 603.892 469.769 605.583 461.694 606.401C450.753 607.52 439.9 607.029 429.163 604.738C423.341 603.511 417.812 601.547 412.459 598.901C403.156 603.729 393.882 608.501 384.842 613.192C384.959 615.374 385.544 617.419 385.018 619.192C384.462 620.992 382.824 622.492 381.39 624.51C413.132 649.628 445.195 674.991 477.375 700.464C489.808 693.646 502.124 686.909 514.645 680.064C513.768 679.137 513.065 678.428 512.393 677.691C506.044 670.846 506.015 662.555 512.363 655.683C516.693 651.019 522.31 648.128 528.336 645.919C530.647 645.074 532.578 645.81 533.251 647.528C533.953 649.328 533.076 650.774 530.823 651.81C528.132 653.037 525.323 654.183 522.807 655.71C520.73 656.992 518.77 658.601 517.161 660.373C513.563 664.355 513.592 668.691 516.986 672.81C519.648 676.082 523.246 678.237 527.137 680.009C533.573 682.982 540.448 684.618 547.527 685.464C558.644 686.8 569.702 686.446 580.614 683.909C587.372 682.328 593.838 680.119 599.279 675.864C600.595 674.828 601.853 673.628 602.848 672.291C605.832 668.419 605.715 664.573 602.672 660.701C600.01 657.319 596.266 655.164 592.346 653.31C591.468 652.901 590.532 652.573 589.771 652.055C588.396 651.128 588.045 649.492 588.806 648.155C589.566 646.792 591.205 646.001 592.726 646.601C600.274 649.519 607.002 653.473 610.483 660.755C613.116 666.291 612.005 671.61 608.143 676.41C604.603 680.828 599.835 683.773 594.569 686.064C586.524 689.555 578.04 691.3 569.234 692.118C558.059 693.127 547.03 692.555 536.206 689.8C531.73 688.655 527.371 686.964 523.129 685.191C521.286 684.4 520.028 684.455 518.331 685.409C505.781 692.364 493.143 699.236 480.534 706.136C476.936 708.1 476.292 708.018 473.074 705.482C440.66 679.846 408.246 654.237 375.89 628.547C374.311 627.292 372.848 626.747 370.683 626.965C368.109 627.237 365.417 627.019 362.843 626.637C360.737 626.337 358.981 626.528 357.08 627.51C341.107 635.856 325.075 644.119 309.073 652.41C295.528 659.419 282.012 666.428 268.467 673.464C267.619 673.9 266.8 674.364 265.659 674.991C266.712 675.7 267.56 676.273 268.409 676.846C271.685 679.055 274.523 681.646 276.454 685C279.262 689.964 279.233 694.927 276.395 699.864C274.465 703.218 271.598 705.782 268.292 707.964C262.558 711.727 256.18 714.154 249.393 715.654C231.255 719.691 213.293 719.254 195.623 713.364C193.722 712.736 191.791 711.564 189.948 711.645C188.163 711.727 186.467 713.091 184.711 713.936C174.238 718.982 163.765 724 153.292 729.045C152.268 729.536 151.273 730.054 149.576 730.927C150.571 731.527 151.244 731.881 151.829 732.318C179.855 754.463 207.881 776.635 235.878 798.808C239.739 801.862 243.601 804.917 247.463 807.971C247.843 808.271 248.223 808.544 248.545 808.871C250.417 810.78 249.891 813.071 247.404 814.217C246.058 814.817 244.713 815.498 243.367 816.153C246.731 821.171 260.744 821.253 264.664 816.371C263.728 815.771 262.792 815.171 261.856 814.598C260.013 813.48 259.428 811.735 260.364 810.18C261.212 808.735 263.055 808.108 264.928 808.98C266.478 809.689 267.999 810.617 269.199 811.762C272.241 814.599 272.212 818.608 269.316 821.553C268.731 822.153 268.029 822.671 267.063 823.489C299.185 848.907 331.248 874.27 363.369 899.688C375.803 892.87 388.06 886.161 400.581 879.316C399.938 878.579 399.411 877.952 398.855 877.379C391.776 870.016 391.834 861.343 399.06 854.143C403.361 849.862 408.714 847.134 414.507 845.062C416.642 844.298 418.485 844.98 419.187 846.616C419.948 848.389 418.924 850.189 416.964 851.007C413.863 852.289 410.791 853.734 407.953 855.48C405.964 856.707 404.18 858.371 402.717 860.143C399.616 863.907 399.704 867.861 402.717 871.707C405.116 874.789 408.392 876.916 411.961 878.661C418.397 881.852 425.36 883.625 432.527 884.525C444.112 885.998 455.668 885.725 467.048 882.998C472.84 881.607 478.457 879.779 483.284 876.452C485.303 875.061 487.234 873.425 488.755 871.598C491.914 867.752 491.739 863.716 488.609 859.816C486.414 857.062 483.46 855.152 480.271 853.489C478.984 852.834 477.609 852.343 476.351 851.689C473.718 850.298 473.63 847.544 476.175 845.989C477.316 845.307 478.545 844.762 479.744 844.134C509.584 828.426 539.453 812.689 569.293 796.981C570.141 796.544 570.96 796.053 571.721 795.617C571.663 795.317 571.692 795.126 571.604 794.99C567.479 789.399 571.984 784.163 578.128 782.39C579.737 781.926 581.229 782.717 581.96 784.163C582.633 785.472 582.311 786.863 581.053 787.844C580.527 788.226 579.854 788.417 579.269 788.772C578.42 789.29 577.63 789.89 576.782 790.462C581.082 795.262 593.867 795.262 598.109 790.462C597.348 789.944 596.675 789.317 595.856 788.935C594.364 788.199 593.311 787.244 593.399 785.553C593.486 783.863 594.598 782.963 596.295 782.581C596.851 782.444 597.377 782.172 597.875 781.926C606.534 777.372 615.164 772.817 623.824 768.263C624.087 768.126 624.292 767.935 624.789 767.554C624.175 766.872 623.59 766.217 623.004 765.563C616.919 758.663 617.036 750.508 623.385 743.772C627.802 739.081 633.536 736.19 639.68 733.981C641.581 733.3 643.366 734.063 644.097 735.591C644.887 737.227 644.156 738.918 642.166 739.845C640.001 740.854 637.661 741.618 635.613 742.818C633.244 744.209 630.903 745.763 628.943 747.618C624.175 752.145 624.204 757.19 628.68 761.936C631.43 764.854 634.911 766.872 638.626 768.508C645.472 771.535 652.756 773.09 660.246 773.908C671.099 775.054 681.836 774.481 692.426 771.917C697.926 770.581 703.279 768.836 707.872 765.672C710.125 764.117 712.26 762.29 713.928 760.245C716.678 756.863 716.532 753.154 714.045 749.581C712.407 747.236 710.213 745.463 707.726 743.99C705.766 742.818 703.63 741.89 701.582 740.827C699.622 739.818 698.862 738.181 699.593 736.572C700.324 734.936 702.226 734.2 704.303 735.045C710.066 737.418 715.361 740.472 719.164 745.299C723.933 751.354 723.991 758.172 719.34 764.281C716.297 768.317 712.085 771.072 707.492 773.363C700.617 776.772 693.216 778.708 685.58 779.744C672.24 781.572 658.929 781.217 645.911 777.672C641.376 776.444 637.047 774.481 632.658 772.735C631.518 772.272 630.64 771.999 629.44 772.626C620.898 777.181 612.326 781.653 603.609 786.235C604.457 788.308 605.627 790.408 604.574 792.508C603.638 794.335 602.175 795.944 600.771 797.881C632.775 823.189 664.985 848.689 697.282 874.243C709.715 867.425 721.973 860.716 734.465 853.871C733.85 853.162 733.353 852.562 732.797 851.989C730.34 849.425 728.497 846.589 727.824 843.18C726.946 838.735 728.175 834.725 730.925 831.071C733.733 827.335 737.507 824.635 741.749 822.535C744.06 821.389 746.459 820.353 748.916 819.48C750.642 818.853 752.398 819.671 753.1 821.089C753.831 822.617 753.217 824.389 751.462 825.235C750.262 825.835 748.975 826.271 747.746 826.789C744.119 828.398 740.696 830.307 737.946 833.089C733.265 837.807 733.207 842.934 737.887 847.653C742.1 851.907 747.541 854.389 753.305 856.162C763.31 859.216 773.578 860.334 784.11 859.816C792.535 859.407 800.756 858.125 808.625 855.262C812.633 853.789 816.407 851.934 819.683 849.262C826.588 843.589 826.675 837.262 819.713 831.671C817.519 829.926 814.886 828.644 812.428 827.198C811.697 826.762 810.819 826.517 810.088 826.08C808.45 825.126 807.894 823.571 808.596 822.098C809.298 820.653 810.907 819.971 812.75 820.353C813.043 820.408 813.306 820.517 813.569 820.626C818.747 822.835 823.574 825.562 827.26 829.707C833.375 836.58 833.258 844.762 826.939 851.498C823.399 855.262 818.981 857.88 814.154 859.952C806.285 863.361 797.947 865.161 789.376 865.843C777.849 866.771 766.381 866.389 755.206 863.28C750.555 861.916 745.815 860.007 740.433 858.125Z" fill="white"/>
<path d="M110.024 793.981C100.721 798.235 91.5059 798.181 82.2322 794.09C76.9078 798.317 74.4797 803.635 74.4504 809.962C74.3919 819.862 74.4212 829.762 74.4212 839.689C74.4212 840.426 74.4797 841.162 74.3919 841.871C74.2164 843.48 73.1632 844.353 71.525 844.353C69.8867 844.353 68.8628 843.507 68.658 841.871C68.5995 841.435 68.6288 840.971 68.6288 840.507C68.6288 829.953 68.541 819.426 68.658 808.871C68.7458 801.072 72.3148 794.717 78.6046 789.617C80.4184 788.144 82.1152 787.79 84.4263 788.881C92.1202 792.563 99.9605 792.644 107.684 788.908C110.024 787.79 111.838 788.063 113.769 789.672C120.029 794.799 123.569 801.153 123.657 808.981C123.745 819.535 123.686 830.062 123.686 840.616C123.686 841.08 123.715 841.544 123.657 841.98C123.452 843.453 122.487 844.298 120.995 844.38C119.415 844.462 118.186 843.562 117.923 842.062C117.806 841.353 117.864 840.616 117.864 839.88C117.864 829.789 117.894 819.699 117.835 809.608C117.777 803.417 115.173 798.317 110.024 793.981Z" fill="white"/>
<path d="M573.535 561.429C564.641 565.493 555.397 565.493 546.094 561.402C542.759 563.802 540.565 566.884 539.453 570.511C538.722 572.829 538.341 575.311 538.312 577.738C538.195 587.556 538.254 597.347 538.254 607.165C538.254 607.901 538.312 608.638 538.195 609.347C537.961 610.82 536.615 611.856 535.182 611.774C533.807 611.692 532.695 610.683 532.491 609.32C532.403 608.774 532.432 608.229 532.432 607.683C532.432 597.238 532.344 586.793 532.461 576.347C532.549 568.329 536.147 561.838 542.73 556.711C544.397 555.402 545.948 555.102 548.025 556.111C555.806 559.902 563.705 560.066 571.516 556.22C573.915 555.048 575.67 555.457 577.572 557.011C583.598 561.92 587.226 568.002 587.401 575.475C587.636 586.465 587.489 597.456 587.46 608.447C587.46 610.574 586.261 611.829 584.505 611.801C582.808 611.774 581.638 610.465 581.638 608.365C581.609 598.002 581.638 587.665 581.609 577.302C581.609 571.602 579.532 566.638 575.202 562.575C574.939 562.329 574.646 562.057 574.325 561.838C574.237 561.675 574.032 561.62 573.535 561.429Z" fill="white"/>
<path d="M465.029 475.931C462.133 476.776 459.588 477.649 456.955 478.249C450.987 479.585 445.165 478.794 439.49 476.749C436.74 475.767 436.711 475.767 434.809 477.813C431.299 481.576 429.397 485.94 429.397 490.985C429.397 501.076 429.397 511.139 429.397 521.23C429.397 522.13 429.426 523.058 429.222 523.93C428.929 525.267 427.583 526.194 426.296 526.167C424.95 526.139 423.839 525.212 423.546 523.767C423.4 523.057 423.4 522.321 423.4 521.585C423.4 511.685 423.4 501.785 423.4 491.885C423.4 483.922 426.472 477.213 432.791 471.813C434.985 469.958 436.886 469.386 439.783 470.776C447.067 474.267 454.615 474.404 461.928 470.831C464.854 469.413 466.902 469.849 469.213 471.84C475.181 476.995 478.457 483.267 478.545 490.822C478.662 501.267 478.603 511.712 478.574 522.158C478.574 524.721 477.55 526.112 475.707 526.139C473.747 526.194 472.723 524.803 472.723 521.994C472.723 511.903 472.723 501.84 472.694 491.749C472.665 485.858 470.529 480.731 465.936 476.585C465.673 476.395 465.351 476.176 465.029 475.931Z" fill="white"/>
<path d="M793.559 735.1C784.636 739.081 775.421 739.218 766.059 735.018C762.227 737.991 759.828 741.7 758.834 746.199C758.453 747.972 758.307 749.799 758.278 751.599C758.219 761.308 758.248 771.045 758.248 780.754C758.248 781.572 758.307 782.39 758.131 783.208C757.868 784.599 756.698 785.39 755.206 785.363C753.714 785.335 752.69 784.49 752.427 783.044C752.339 782.499 752.368 781.954 752.368 781.408C752.368 770.963 752.31 760.517 752.397 750.072C752.456 742.163 756.025 735.727 762.373 730.572C764.216 729.072 765.972 728.827 768.224 729.891C775.83 733.491 783.554 733.654 791.189 730C793.734 728.8 795.636 729.045 797.771 730.845C803.652 735.754 807.191 741.754 807.367 749.145C807.601 760.136 807.484 771.126 807.484 782.117C807.484 783.972 806.723 784.981 805.378 785.308C803.681 785.744 802.013 784.79 801.662 783.099C801.516 782.308 801.575 781.463 801.575 780.644C801.575 770.663 801.575 760.654 801.575 750.672C801.575 745.027 799.38 740.227 795.226 736.191C794.963 735.918 794.67 735.672 794.378 735.454C794.232 735.318 794.027 735.291 793.559 735.1Z" fill="white"/>
<path d="M240.705 587.202C238.072 587.965 235.527 588.893 232.894 589.465C226.838 590.829 220.929 590.065 215.166 587.965C212.445 586.984 212.445 587.011 210.514 589.084C206.623 593.256 204.985 598.165 204.985 603.62C204.985 613.329 204.985 623.065 204.985 632.774C204.985 633.51 205.044 634.247 204.927 634.956C204.722 636.374 203.639 637.328 202.264 637.41C200.977 637.492 199.573 636.537 199.251 635.256C199.105 634.656 199.134 634.001 199.134 633.347C199.134 622.983 199.046 612.647 199.163 602.283C199.251 594.184 202.791 587.556 209.461 582.347C211.129 581.038 212.65 580.711 214.756 581.665C217.096 582.756 219.612 583.493 222.158 584.12C227.599 585.429 232.865 584.393 237.692 582.047C240.646 580.629 242.694 581.12 244.976 583.084C250.769 588.102 254.104 594.184 254.221 601.547C254.396 612.265 254.279 622.983 254.279 633.701C254.279 634.165 254.279 634.601 254.162 635.065C253.87 636.456 252.729 637.437 251.383 637.383C250.008 637.328 248.926 636.647 248.604 635.337C248.399 634.465 248.37 633.538 248.37 632.638C248.34 622.819 248.311 613.029 248.37 603.211C248.399 597.811 246.702 593.038 242.841 588.974C242.46 588.565 242.051 588.184 241.612 587.802C241.349 587.611 241.027 587.42 240.705 587.202Z" fill="white"/>
<path d="M467.633 790.817C467.633 785.635 467.692 780.454 467.604 775.272C467.516 770.036 465.322 765.59 461.49 761.799C460.495 760.817 459.618 760.545 458.184 761.117C450.081 764.417 441.919 764.417 433.815 761.172C432.206 760.545 431.328 760.954 430.304 761.99C426.384 765.972 424.366 770.69 424.337 776.09C424.307 785.99 424.337 795.89 424.307 805.79C424.307 806.69 424.337 807.617 424.19 808.517C423.956 809.935 422.815 810.835 421.411 810.862C419.948 810.889 418.69 809.853 418.456 808.353C418.398 807.917 418.427 807.453 418.427 806.99C418.427 796.544 418.339 786.099 418.456 775.654C418.544 767.663 422.084 761.117 428.608 755.936C430.334 754.545 431.913 754.163 434.137 755.254C441.919 759.045 449.847 759.127 457.658 755.308C459.91 754.218 461.607 754.49 463.479 755.963C469.301 760.599 472.87 766.381 473.397 773.526C473.748 778.135 473.631 782.772 473.66 787.408C473.689 793.572 473.689 799.762 473.66 805.926C473.66 806.826 473.631 807.753 473.484 808.626C473.25 809.962 472.285 810.671 470.881 810.808C469.535 810.944 468.219 810.071 467.867 808.708C467.663 807.917 467.692 807.099 467.663 806.28C467.633 801.181 467.633 795.999 467.633 790.817Z" fill="white"/>
<path d="M684.79 649.437C675.633 653.556 666.389 653.61 656.998 649.437C652.23 653.392 649.509 658.192 649.363 664.137C649.246 669.319 649.333 674.501 649.333 679.655C649.333 684.919 649.333 690.182 649.333 695.446C649.333 696.264 649.333 697.109 649.099 697.873C648.69 699.128 647.695 699.809 646.232 699.755C644.799 699.7 643.834 699.019 643.541 697.682C643.395 696.973 643.336 696.237 643.336 695.528C643.336 685.546 643.307 675.564 643.336 665.555C643.365 657.265 646.642 650.392 653.458 644.965C655.331 643.465 657.057 643.219 659.28 644.283C666.886 647.91 674.639 648.019 682.274 644.365C684.849 643.138 686.75 643.492 688.857 645.237C695.088 650.419 698.452 656.828 698.511 664.628C698.598 674.992 698.54 685.328 698.54 695.691C698.54 696.319 698.569 696.973 698.452 697.6C698.159 698.991 696.989 699.782 695.527 699.755C694.035 699.728 692.981 698.909 692.777 697.464C692.63 696.564 692.689 695.664 692.689 694.737C692.689 684.837 692.718 674.937 692.689 665.037C692.66 659.637 690.67 654.919 686.692 650.965C686.107 650.447 685.492 650.01 684.79 649.437Z" fill="white"/>
<path d="M210.192 660.81C210.192 654.646 210.192 648.455 210.192 642.292C210.192 639.728 211.246 638.365 213.118 638.337C215.019 638.31 216.073 639.646 216.073 642.237C216.102 654.046 216.073 665.855 216.102 677.637C216.102 678.891 216.16 680.2 216.482 681.4C217.74 686.418 222.421 689.446 228.008 688.955C233.07 688.491 237.107 684.509 237.253 679.6C237.399 675.155 237.282 670.71 237.282 666.264C237.282 658.546 237.282 650.828 237.282 643.11C237.282 642.21 237.341 641.283 237.516 640.41C237.78 639.046 238.891 638.446 240.237 638.31C241.524 638.174 242.811 639.21 243.133 640.546C243.279 641.146 243.279 641.801 243.279 642.428C243.279 654.51 243.338 666.591 243.279 678.646C243.221 686.855 237.604 693.046 229.237 694.3C219.437 695.773 210.514 688.846 210.222 679.546C210.222 679.355 210.222 679.191 210.222 679C210.192 672.973 210.192 666.891 210.192 660.81Z" fill="white"/>
<path d="M429.485 834.48C429.485 828.398 429.485 822.289 429.485 816.208C429.485 815.471 429.456 814.735 429.602 814.026C429.865 812.689 431.182 811.762 432.498 811.789C433.873 811.844 435.073 812.798 435.278 814.162C435.395 814.953 435.336 815.798 435.336 816.617C435.336 828.153 435.307 839.689 435.365 851.252C435.365 852.78 435.512 854.362 436.009 855.807C437.53 860.334 442.24 862.98 447.418 862.407C452.274 861.889 456.107 858.152 456.487 853.462C456.604 851.934 456.575 850.38 456.604 848.825C456.604 838.107 456.604 827.389 456.633 816.644C456.633 815.744 456.604 814.817 456.78 813.944C457.072 812.608 458.418 811.653 459.764 811.817C461.109 811.98 462.163 812.608 462.397 813.998C462.514 814.626 462.543 815.253 462.543 815.908C462.543 827.989 462.572 840.071 462.543 852.18C462.514 859.189 458.476 864.78 451.923 867.07C441.216 870.834 429.836 863.743 429.573 853.025C429.397 846.862 429.514 840.671 429.485 834.48C429.514 834.48 429.514 834.48 429.485 834.48Z" fill="white"/>
<path d="M576.461 635.119C576.461 641.201 576.519 647.283 576.431 653.365C576.344 660.346 571.985 665.964 565.227 668.092C554.871 671.337 544.134 664.546 543.52 654.374C543.491 653.828 543.491 653.283 543.491 652.737C543.491 640.847 543.491 628.956 543.491 617.065C543.491 616.329 543.461 615.592 543.578 614.883C543.812 613.547 544.778 612.838 546.182 612.674C547.498 612.511 548.932 613.438 549.224 614.747C549.429 615.62 549.371 616.547 549.371 617.447C549.371 629.147 549.341 640.874 549.4 652.574C549.4 653.992 549.576 655.492 550.073 656.855C551.77 661.437 556.743 664.055 561.921 663.237C566.66 662.501 570.346 658.519 570.551 653.883C570.58 653.146 570.551 652.437 570.551 651.701C570.551 640.165 570.551 628.629 570.551 617.12C570.551 616.301 570.522 615.456 570.727 614.692C571.078 613.383 572.482 612.511 573.828 612.729C575.203 612.947 576.168 613.629 576.344 614.992C576.431 615.811 576.461 616.629 576.461 617.447C576.461 623.31 576.461 629.229 576.461 635.119Z" fill="white"/>
<path d="M467.486 549.675C467.486 555.866 467.457 562.03 467.486 568.22C467.515 574.957 461.898 582.266 452.654 583.248C445.077 584.066 437.412 579.429 435.218 572.339C434.75 570.784 434.516 569.12 434.516 567.511C434.458 555.43 434.487 543.348 434.487 531.239C434.487 530.612 434.516 529.957 434.604 529.33C434.809 527.966 435.803 527.285 437.149 527.066C438.465 526.876 439.84 527.776 440.162 529.139C440.367 530.012 440.367 530.939 440.367 531.839C440.367 543.294 440.367 554.748 440.396 566.202C440.396 567.566 440.396 568.957 440.689 570.266C441.683 574.493 445.925 577.629 450.606 577.766C455.404 577.875 459.734 575.12 461.021 570.893C461.46 569.42 461.606 567.839 461.606 566.311C461.664 554.775 461.635 543.239 461.635 531.675C461.635 530.857 461.577 530.039 461.723 529.221C461.928 528.021 463.127 527.121 464.385 527.039C465.702 526.957 467.106 527.912 467.369 529.194C467.515 529.903 467.457 530.639 467.457 531.376C467.486 537.512 467.486 543.594 467.486 549.675Z" fill="white"/>
<path d="M79.6289 868.134C79.6289 862.052 79.6289 855.971 79.6289 849.889C79.6289 849.153 79.5996 848.416 79.7166 847.707C79.9799 846.289 81.0623 845.443 82.5251 845.416C83.9586 845.389 85.158 846.262 85.4213 847.625C85.5676 848.416 85.509 849.262 85.509 850.08C85.509 861.971 85.509 873.861 85.509 885.752C85.509 890.307 87.9957 893.825 92.2084 895.406C98.8784 897.943 106.455 893.47 106.66 886.707C106.806 881.988 106.689 877.27 106.689 872.552C106.689 865.025 106.689 857.471 106.689 849.943C106.689 849.125 106.66 848.28 106.836 847.516C107.157 846.18 108.445 845.334 109.849 845.416C111.282 845.498 112.277 846.371 112.511 847.843C112.599 848.389 112.57 848.934 112.57 849.48C112.57 861.643 112.482 873.807 112.599 885.97C112.657 893.088 107.509 899.416 100.078 901.161C90.3068 903.479 80.3602 896.825 79.6581 887.47C79.6289 887.116 79.5996 886.734 79.5996 886.379C79.6289 880.298 79.6289 874.216 79.6289 868.134Z" fill="white"/>
<path d="M796.396 809.09C796.396 815.171 796.484 821.253 796.367 827.362C796.221 836.362 788.381 843.071 778.785 842.553C770.769 842.117 764.041 835.98 763.514 828.508C763.309 825.508 763.397 822.508 763.397 819.508C763.397 810.153 763.397 800.799 763.397 791.445C763.397 790.626 763.368 789.808 763.456 788.99C763.66 787.299 764.626 786.454 766.264 786.426C767.961 786.399 769.073 787.354 769.248 789.126C769.336 789.835 769.277 790.572 769.277 791.308C769.277 803.117 769.248 814.926 769.277 826.735C769.307 831.917 772.525 835.708 777.703 836.826C783.788 838.135 789.902 833.962 790.428 828.18C790.516 827.28 790.487 826.353 790.487 825.453C790.487 813.999 790.487 802.572 790.487 791.117C790.487 790.299 790.428 789.454 790.575 788.663C790.896 787.163 792.184 786.317 793.734 786.426C795.226 786.535 796.162 787.381 796.279 788.935C796.396 790.654 796.338 792.399 796.338 794.117C796.426 799.108 796.396 804.099 796.396 809.09Z" fill="white"/>
<path d="M687.453 723.564C687.453 729.564 687.511 735.563 687.424 741.563C687.277 750.754 679.554 757.463 669.783 756.972C662.265 756.59 655.682 750.972 654.688 743.991C654.512 742.736 654.454 741.454 654.454 740.2C654.424 728.664 654.424 717.127 654.454 705.591C654.454 704.691 654.454 703.764 654.658 702.891C654.951 701.555 655.916 700.9 657.379 700.873C658.842 700.846 659.836 701.528 660.158 702.837C660.392 703.709 660.363 704.637 660.363 705.537C660.363 716.991 660.363 728.445 660.392 739.872C660.392 741.4 660.422 743.009 660.89 744.454C662.235 748.927 667.033 751.954 671.743 751.572C676.921 751.136 680.958 747.454 681.573 742.6C681.69 741.7 681.66 740.772 681.66 739.872C681.66 728.527 681.66 717.155 681.66 705.809C681.66 705.073 681.631 704.364 681.69 703.628C681.865 701.828 682.918 700.873 684.615 700.9C686.312 700.928 687.307 701.882 687.482 703.709C687.541 704.337 687.511 704.991 687.511 705.618C687.453 711.564 687.453 717.564 687.453 723.564Z" fill="white"/>
<path d="M205.512 557.011C205.57 546.02 215.166 537.266 227.072 537.375C238.54 537.457 247.931 546.375 247.931 557.148C247.931 568.138 238.277 577.056 226.487 576.947C214.844 576.838 205.453 567.92 205.512 557.011ZM242.021 557.093C241.992 549.893 236.141 542.857 226.78 542.857C216.95 542.857 211.362 550.275 211.421 557.284C211.479 565.057 218.559 571.52 226.838 571.411C235.263 571.302 242.051 564.92 242.021 557.093Z" fill="white"/>
<path d="M424.833 730.545C424.862 719.636 434.312 710.827 446.013 710.773C457.569 710.718 467.252 719.691 467.311 730.518C467.369 741.481 457.715 750.427 445.896 750.372C434.165 750.345 424.804 741.509 424.833 730.545ZM461.284 730.682C461.343 722.854 454.556 716.418 446.16 716.336C437.851 716.255 430.801 722.664 430.713 730.436C430.625 737.445 436.184 744.891 446.043 744.891C455.843 744.863 461.343 737.445 461.284 730.682Z" fill="white"/>
<path d="M779.926 724.845C768.107 724.845 758.863 716.227 758.717 705.209C758.6 695.391 766.762 685.301 780.043 685.382C792.71 685.437 801.136 694.873 801.107 705.209C801.136 716.146 791.716 724.845 779.926 724.845ZM780.043 690.919C771.442 690.891 764.597 697.273 764.626 705.237C764.655 713.009 771.618 719.445 779.955 719.418C788.322 719.418 795.168 713.009 795.168 705.155C795.197 697.246 788.498 690.946 780.043 690.919Z" fill="white"/>
<path d="M74.9478 764.336C74.8893 753.318 84.1338 744.536 95.8649 744.427C107.83 744.345 117.104 752.963 117.309 764.118C117.484 773.199 110.053 783.836 96.2159 783.89C82.3785 783.972 74.7723 773.418 74.9478 764.336ZM111.399 764.09C111.341 756.236 104.495 749.882 96.1282 749.909C87.7613 749.909 80.828 756.372 80.828 764.118C80.828 772.054 87.7321 778.436 96.3037 778.408C104.671 778.381 111.458 771.945 111.399 764.09Z" fill="white"/>
<path d="M538.809 531.376C538.868 520.412 548.259 511.685 559.99 511.685C571.809 511.685 581.229 520.576 581.141 531.703C581.053 542.612 571.487 551.366 559.814 551.285C548.083 551.148 538.751 542.312 538.809 531.376ZM560.019 545.666C568.532 545.639 575.261 539.366 575.261 531.485C575.261 523.658 568.415 517.167 560.107 517.112C551.681 517.058 544.631 523.658 544.69 531.539C544.719 539.366 551.594 545.721 560.019 545.666Z" fill="white"/>
<path d="M671.041 639.265C659.251 639.319 649.89 630.701 649.773 619.683C649.656 608.72 658.959 600.047 670.748 599.829C682.684 599.611 692.25 608.884 692.163 619.547C692.075 630.538 682.83 639.238 671.041 639.265ZM655.682 619.492C655.623 627.32 662.411 633.756 670.807 633.838C679.203 633.892 686.165 627.592 686.282 619.792C686.399 611.883 679.466 605.338 670.953 605.311C662.528 605.284 655.741 611.611 655.682 619.492Z" fill="white"/>
</svg>
