<svg width="1920" height="980" viewBox="0 0 1920 980" fill="none" xmlns="http://www.w3.org/2000/svg">
<rect y="0.5" width="1921" height="979" fill="#34A853"/>
<path d="M987.295 834.703C974.497 841.721 961.183 848.999 947.909 856.276C943.233 858.824 938.597 861.373 933.921 863.959C928.493 866.914 928.136 866.914 923.183 862.999C901.35 845.711 879.517 828.423 857.684 811.136C835.256 793.368 812.789 775.637 790.362 757.832C788.618 756.428 786.875 756.096 784.656 756.133C780.456 756.206 776.216 756.133 772.095 755.542C769.678 755.209 767.815 755.431 765.755 756.539C728.468 776.228 691.102 795.88 653.776 815.531C650.012 817.526 646.247 819.521 642.008 821.737C643.355 822.698 644.306 823.436 645.297 824.138C649.021 826.724 652.429 829.605 655.005 833.262C660.473 841.02 660.393 849.848 654.806 857.495C651.557 861.964 647.199 865.326 642.325 868.133C632.854 873.563 622.473 876.703 611.616 878.402C591.843 881.468 572.15 881.025 552.853 875.521C546.949 873.859 541.322 871.347 535.18 869.094C528.563 872.714 521.51 876.555 514.457 880.434C503.322 886.529 492.148 892.661 481.013 898.756C476.298 901.342 475.664 901.231 471.622 898.017C430.77 865.695 389.877 833.373 348.985 801.051C345.458 798.281 341.892 795.51 338.445 792.666C337.296 791.705 336.107 791.262 334.522 791.373C329.371 791.742 324.259 791.705 319.148 790.782C317.681 790.523 315.819 791.225 314.393 791.964C296.245 801.236 278.097 810.618 259.988 819.927C230.666 835.035 201.344 850.144 172.022 865.252C170.793 865.88 169.565 866.582 167.94 867.468C169.248 868.429 170.239 869.168 171.269 869.832C175.033 872.381 178.441 875.263 181.017 878.92C186.802 887.009 186.564 896.207 180.343 904.038C176.658 908.693 171.863 912.091 166.554 914.973C157.757 919.701 148.208 922.545 138.301 924.133C118.41 927.31 98.5977 926.83 79.1421 921.474C70.2266 918.999 61.7865 915.527 54.6938 909.764C52.4352 907.917 50.2954 905.812 48.552 903.558C42.4498 895.616 42.4894 886.381 48.6312 878.476C50.2954 876.297 52.3559 874.302 54.4956 872.492C59.5676 868.244 65.5509 865.363 71.8512 863.036C72.4455 862.814 73.0795 862.592 73.7531 862.518C76.1306 862.223 78.1515 863.294 78.8251 865.178C79.6176 867.284 78.7458 869.389 76.5268 870.46C74.7834 871.31 72.921 871.938 71.0983 872.714C66.1452 874.856 61.628 877.59 57.9033 881.358C52.0785 887.342 51.8012 893.658 57.2694 899.975C61.1922 904.482 66.383 907.363 71.97 909.764C81.6384 913.938 91.9408 916.118 102.481 916.967C118.251 918.223 133.863 917.374 149.04 912.756C154.944 910.946 160.61 908.656 165.722 905.294C169.208 903.004 172.26 900.344 174.28 896.724C176.46 892.809 176.42 888.967 174.201 885.088C172.22 881.616 169.288 878.993 165.84 876.888C162.987 875.152 159.936 873.637 156.885 872.16C154.983 871.236 153.557 870.128 153.398 868.059C153.24 865.806 154.508 864.402 156.529 863.368C165.523 858.751 174.518 854.096 183.553 849.442C223.613 828.83 263.713 808.18 303.773 787.568C305.12 786.866 306.468 786.091 307.815 785.389C304.011 778.555 304.288 776.154 309.717 770.28C308.924 769.579 308.172 768.803 307.3 768.101C265.337 734.892 223.336 701.684 181.373 668.475C179.867 667.293 178.282 666.148 176.856 664.855C173.884 662.195 174.162 659.203 177.728 657.282C181.175 655.436 184.741 653.847 188.228 652.148C201.938 645.573 215.648 638.997 229.358 632.385C230.508 631.831 231.577 631.203 233.321 630.28C231.974 629.245 230.785 628.617 229.992 627.694C227.575 624.813 224.841 622.042 223.058 618.828C219.611 612.733 220.205 606.491 223.573 600.396C225.871 596.258 229.24 593.008 233.123 590.163C237.759 586.839 242.87 584.29 248.299 582.332C249.25 582 250.32 581.704 251.35 581.667C253.45 581.593 254.956 582.591 255.59 584.327C256.303 586.174 255.709 588.058 253.926 589.203C253.054 589.757 252.024 590.053 251.112 590.496C247.942 592.01 244.693 593.377 241.682 595.15C239.265 596.591 236.966 598.327 234.985 600.285C228.407 606.786 228.487 613.731 235.144 620.232C241.246 626.216 249.012 629.504 257.254 631.942C272.708 636.522 288.557 637.409 304.605 635.931C314.67 635.008 324.457 633.05 333.571 629.024C337.692 627.214 341.773 624.96 345.3 622.301C355.285 614.691 355.206 605.456 345.141 597.847C342.09 595.557 338.524 593.857 335.156 591.936C334.165 591.345 332.976 591.013 332.025 590.348C329.45 588.538 329.41 585.25 331.867 583.367C332.659 582.739 333.65 582.295 334.561 581.815C375.969 560.39 417.377 538.928 458.745 517.503C459.894 516.912 461.003 516.247 462.311 515.509C457.714 509.968 458.507 504.907 464.054 500.326C462.707 499.218 461.637 498.295 460.567 497.445C418.803 464.384 376.999 431.36 335.235 398.3C333.927 397.265 332.58 396.268 331.312 395.16C327.944 392.241 328.34 389.286 332.422 387.218C337.177 384.817 342.011 382.563 346.805 380.236C359.129 374.326 371.412 368.415 383.735 362.468C384.885 361.914 385.954 361.323 387.262 360.621C385.439 358.885 383.775 357.481 382.269 355.967C372.759 346.363 372.72 334.394 382.23 324.79C388.173 318.769 395.662 314.927 403.785 312.083C406.361 311.196 408.857 312.157 409.769 314.151C410.799 316.405 409.808 318.732 407.153 319.951C404.657 321.096 402.042 321.983 399.625 323.202C395.068 325.492 390.828 328.188 387.658 332.141C383.3 337.608 383.26 343.001 387.658 348.468C391.462 353.233 396.772 356.262 402.399 358.774C411.037 362.653 420.269 364.758 429.7 365.867C444.48 367.64 459.22 367.086 473.723 363.761C481.687 361.951 489.493 359.513 496.15 354.896C499.201 352.79 502.054 350.315 504.313 347.508C507.998 342.89 507.839 337.903 504.432 333.064C501.579 329.038 497.577 326.304 493.178 323.94C491.118 322.832 488.899 321.983 486.878 320.874C484.619 319.618 483.946 317.513 484.897 315.518C485.967 313.376 488.344 312.304 490.84 313.302C499.32 316.7 507.047 321.17 512.238 328.558C517.547 336.167 517.666 344.072 512.515 351.83C509.385 356.521 504.986 360.03 500.033 362.948C491.554 367.935 482.242 371.001 472.494 372.848C451.176 376.875 430.017 376.394 409.135 370.447C405.608 369.45 402.24 368.046 398.793 366.753C397.525 366.273 396.455 366.014 395.108 366.679C377.792 375.065 360.436 383.413 343.12 391.761C342.922 391.872 342.803 392.094 342.407 392.574C343.754 393.682 345.102 394.79 346.488 395.898C382.309 424.268 418.169 452.601 453.99 480.933C460.845 486.363 467.66 491.757 474.515 497.187C475.109 497.667 475.743 498.11 476.259 498.701C478.398 501.213 477.408 504.538 474.119 505.498C472.098 506.089 469.998 506.422 468.611 508.675C471.345 511.889 475.426 512.517 479.349 512.886C485.689 513.477 491.95 513.145 497.695 508.675C496.586 507.788 495.793 507.049 494.922 506.458C494.208 505.941 493.257 505.646 492.584 505.092C491.237 503.947 490.563 502.506 491.078 500.77C491.593 499.071 492.901 498.147 494.684 497.667C496.665 497.113 498.765 496.669 500.548 495.746C510.732 490.574 520.876 485.255 530.98 480.01C532.129 479.419 533.239 478.791 534.546 478.052C533.08 476.501 531.733 475.171 530.465 473.767C522.619 464.902 522.5 454.337 530.187 445.397C536.171 438.453 544.254 434.353 552.932 431.213C555.785 430.178 558.242 431.323 559.193 433.54C560.144 435.756 558.994 437.825 556.221 439.192C551.783 441.371 547.266 443.366 543.065 445.915C540.569 447.429 538.39 449.572 536.607 451.825C532.565 456.886 532.525 462.205 536.686 467.155C538.944 469.814 541.758 472.179 544.69 474.173C552.813 479.566 562.164 482.189 571.793 483.888C591.051 487.25 610.11 486.733 628.932 481.34C634.756 479.677 640.423 477.572 645.336 474.136C648.07 472.252 650.725 470.11 652.865 467.672C657.541 462.279 657.422 456.627 652.865 451.123C650.091 447.725 646.485 445.25 642.562 443.144C640.621 442.11 638.521 441.297 636.579 440.3C634.043 438.97 633.132 436.495 634.241 434.389C635.272 432.469 637.847 431.545 640.383 432.542C648.11 435.645 655.123 439.746 660.314 446.062C667.486 454.817 667.249 464.975 659.759 473.582C654.806 479.271 648.387 483.076 641.374 486.068C631.349 490.353 620.69 492.643 609.753 493.751C594.934 495.266 580.233 494.601 565.691 491.498C557.806 489.836 550.317 487.176 543.065 483.593C530.465 490.131 517.904 496.596 505.66 502.949C505.818 505.904 506.611 508.675 505.898 511.076C505.145 513.514 502.926 515.546 500.984 518.279C543.977 552.3 587.405 586.654 630.992 621.156C647.833 611.921 664.514 602.797 681.474 593.525C680.285 592.269 679.334 591.309 678.423 590.311C669.824 581.039 669.784 569.81 678.383 560.501C684.247 554.184 691.855 550.269 700.018 547.277C703.148 546.131 705.763 547.129 706.675 549.456C707.626 551.894 706.437 553.852 703.386 555.256C699.741 556.918 695.937 558.469 692.529 560.538C689.716 562.274 687.061 564.453 684.881 566.855C680.008 572.248 680.047 578.121 684.644 583.699C688.25 588.132 693.123 591.05 698.393 593.451C707.111 597.477 716.422 599.694 726.012 600.839C741.069 602.649 756.047 602.169 770.827 598.733C779.98 596.591 788.737 593.599 796.107 587.836C797.89 586.432 799.594 584.807 800.942 582.997C804.983 577.752 804.825 572.543 800.704 567.298C797.098 562.717 792.026 559.799 786.716 557.287C785.528 556.733 784.26 556.29 783.229 555.588C781.367 554.332 780.892 552.116 781.922 550.306C782.952 548.459 785.171 547.387 787.231 548.2C797.455 552.153 806.568 557.509 811.283 567.372C814.85 574.87 813.344 582.074 808.114 588.575C803.319 594.559 796.86 598.549 789.728 601.652C778.831 606.38 767.34 608.744 755.413 609.852C740.276 611.219 725.338 610.443 710.677 606.712C704.614 605.161 698.71 602.871 692.965 600.469C690.468 599.398 688.765 599.472 686.466 600.765C669.467 610.185 652.35 619.493 635.272 628.839C630.398 631.499 629.526 631.388 625.167 627.952C581.263 593.229 537.359 558.543 493.535 523.746C491.395 522.047 489.414 521.308 486.482 521.604C482.995 521.973 479.349 521.678 475.862 521.16C473.009 520.754 470.632 521.013 468.056 522.342C446.421 533.646 424.707 544.839 403.033 556.068C384.686 565.562 366.38 575.055 348.034 584.586C346.885 585.177 345.775 585.805 344.23 586.654C345.656 587.615 346.805 588.39 347.954 589.166C352.392 592.158 356.236 595.667 358.851 600.211C362.655 606.934 362.616 613.657 358.772 620.343C356.157 624.887 352.274 628.359 347.796 631.314C340.03 636.412 331.391 639.699 322.199 641.731C297.631 647.198 273.302 646.607 249.369 638.628C246.793 637.778 244.178 636.19 241.682 636.301C239.265 636.412 236.966 638.259 234.589 639.404C220.403 646.238 206.218 653.034 192.032 659.868C190.645 660.533 189.298 661.235 187 662.417C188.347 663.23 189.258 663.71 190.051 664.301C228.011 694.296 265.971 724.328 303.892 754.36C309.123 758.497 314.353 762.634 319.583 766.771C320.098 767.178 320.614 767.547 321.049 767.99C323.585 770.576 322.872 773.679 319.504 775.23C317.681 776.043 315.859 776.967 314.036 777.853C318.593 784.65 337.573 784.761 342.883 778.149C341.615 777.336 340.347 776.523 339.079 775.747C336.582 774.233 335.79 771.869 337.058 769.763C338.207 767.806 340.703 766.956 343.239 768.138C345.339 769.098 347.4 770.354 349.024 771.906C353.145 775.748 353.106 781.178 349.183 785.167C348.39 785.98 347.439 786.682 346.132 787.79C389.639 822.217 433.068 856.571 476.576 890.999C493.416 881.764 510.019 872.677 526.978 863.405C526.106 862.408 525.393 861.558 524.64 860.782C515.051 850.809 515.13 839.062 524.917 829.31C530.742 823.51 537.993 819.816 545.839 817.009C548.732 815.975 551.228 816.898 552.179 819.114C553.209 821.516 551.822 823.954 549.168 825.062C544.967 826.798 540.807 828.756 536.963 831.12C534.269 832.782 531.852 835.035 529.87 837.436C525.67 842.534 525.789 847.89 529.87 853.099C533.12 857.273 537.558 860.154 542.392 862.518C551.109 866.84 560.54 869.241 570.248 870.46C585.939 872.455 601.591 872.086 617.005 868.392C624.85 866.508 632.458 864.033 638.996 859.526C641.73 857.642 644.346 855.426 646.406 852.951C650.685 847.743 650.448 842.276 646.208 836.993C643.236 833.262 639.234 830.677 634.915 828.423C633.171 827.537 631.309 826.872 629.605 825.985C626.039 824.101 625.92 820.37 629.368 818.265C630.913 817.341 632.577 816.603 634.202 815.753C674.619 794.476 715.075 773.162 755.492 751.885C756.641 751.294 757.751 750.629 758.781 750.038C758.702 749.631 758.741 749.373 758.623 749.188C753.035 741.615 759.138 734.523 767.459 732.122C769.638 731.494 771.659 732.565 772.65 734.523C773.561 736.296 773.125 738.18 771.421 739.51C770.708 740.027 769.797 740.286 769.004 740.766C767.855 741.468 766.785 742.28 765.636 743.056C771.461 749.557 788.777 749.557 794.522 743.056C793.492 742.354 792.581 741.505 791.471 740.987C789.45 739.99 788.024 738.697 788.143 736.407C788.262 734.117 789.767 732.898 792.066 732.381C792.818 732.196 793.532 731.826 794.205 731.494C805.934 725.325 817.623 719.156 829.352 712.987C829.709 712.803 829.986 712.544 830.66 712.027C829.828 711.103 829.035 710.217 828.243 709.33C820.001 699.985 820.159 688.94 828.758 679.816C834.741 673.462 842.508 669.546 850.829 666.554C853.404 665.631 855.821 666.665 856.812 668.734C857.882 670.95 856.891 673.24 854.197 674.496C851.265 675.863 848.095 676.897 845.321 678.523C842.111 680.407 838.941 682.512 836.286 685.024C829.828 691.156 829.867 697.99 835.93 704.417C839.655 708.37 844.37 711.103 849.402 713.32C858.674 717.42 868.541 719.526 878.685 720.634C893.385 722.185 907.928 721.409 922.272 717.937C929.721 716.127 936.972 713.763 943.193 709.478C946.244 707.372 949.137 704.898 951.396 702.127C955.12 697.547 954.922 692.523 951.554 687.684C949.335 684.507 946.363 682.106 942.995 680.111C940.34 678.523 937.448 677.267 934.674 675.826C932.019 674.459 930.989 672.243 931.98 670.064C932.97 667.847 935.546 666.85 938.359 667.995C946.165 671.209 953.337 675.346 958.488 681.884C964.947 690.085 965.026 699.32 958.726 707.594C954.605 713.061 948.899 716.792 942.678 719.895C933.366 724.512 923.341 727.135 913 728.539C894.931 731.014 876.902 730.534 859.269 725.731C853.127 724.069 847.262 721.409 841.319 719.045C839.773 718.417 838.585 718.048 836.96 718.898C825.39 725.066 813.78 731.125 801.972 737.33C803.121 740.138 804.706 742.982 803.279 745.826C802.011 748.301 800.03 750.481 798.128 753.104C841.477 787.383 885.104 821.922 928.849 856.534C945.69 847.299 962.292 838.212 979.212 828.94C978.38 827.98 977.706 827.167 976.953 826.392C973.625 822.919 971.129 819.078 970.217 814.46C969.029 808.439 970.693 803.009 974.417 798.059C978.221 792.998 983.333 789.341 989.078 786.497C992.209 784.945 995.458 783.542 998.786 782.36C1001.12 781.51 1003.5 782.618 1004.45 784.539C1005.44 786.608 1004.61 789.009 1002.23 790.154C1000.61 790.967 998.866 791.558 997.202 792.259C992.288 794.439 987.652 797.025 983.927 800.792C977.587 807.183 977.508 814.128 983.848 820.518C989.554 826.281 996.924 829.642 1004.73 832.043C1018.28 836.181 1032.19 837.695 1046.45 836.993C1057.87 836.439 1069 834.703 1079.66 830.824C1085.09 828.83 1090.2 826.318 1094.64 822.698C1103.99 815.014 1104.11 806.444 1094.68 798.872C1091.71 796.508 1088.14 794.771 1084.81 792.814C1083.82 792.223 1082.63 791.89 1081.64 791.299C1079.42 790.006 1078.67 787.901 1079.62 785.906C1080.57 783.948 1082.75 783.025 1085.25 783.542C1085.64 783.616 1086 783.763 1086.36 783.911C1093.37 786.903 1099.91 790.597 1104.9 796.212C1113.18 805.521 1113.02 816.603 1104.46 825.727C1099.67 830.824 1093.69 834.37 1087.15 837.178C1076.49 841.795 1065.2 844.233 1053.59 845.157C1037.98 846.413 1022.44 845.896 1007.31 841.685C1001.01 839.838 994.586 837.252 987.295 834.703Z" fill="white"/>
<path d="M133.427 747.821C120.827 753.584 108.345 753.51 95.7841 747.969C88.5724 753.695 85.2836 760.898 85.244 769.468C85.1647 782.877 85.2044 796.286 85.2044 809.732C85.2044 810.729 85.2836 811.727 85.1647 812.687C84.927 814.867 83.5005 816.049 81.2815 816.049C79.0626 816.049 77.6757 814.904 77.3983 812.687C77.3191 812.096 77.3587 811.468 77.3587 810.84C77.3587 796.545 77.2398 782.286 77.3983 767.99C77.5172 757.426 82.3514 748.819 90.8707 741.911C93.3274 739.916 95.6256 739.436 98.7559 740.914C109.177 745.901 119.797 746.011 130.257 740.951C133.427 739.436 135.884 739.806 138.499 741.985C146.979 748.93 151.773 757.537 151.892 768.138C152.011 782.434 151.932 796.692 151.932 810.988C151.932 811.616 151.972 812.244 151.892 812.835C151.615 814.83 150.307 815.975 148.287 816.086C146.147 816.197 144.483 814.978 144.126 812.946C143.967 811.985 144.047 810.988 144.047 809.991C144.047 796.323 144.086 782.655 144.007 768.988C143.928 760.603 140.401 753.695 133.427 747.821Z" fill="white"/>
<path d="M761.238 432.838C749.192 438.342 736.671 438.342 724.07 432.801C719.553 436.052 716.581 440.226 715.075 445.139C714.085 448.279 713.57 451.64 713.53 454.928C713.372 468.226 713.451 481.487 713.451 494.786C713.451 495.783 713.53 496.78 713.372 497.741C713.055 499.735 711.232 501.139 709.29 501.028C707.428 500.918 705.922 499.551 705.645 497.704C705.526 496.965 705.566 496.226 705.566 495.487C705.566 481.34 705.447 467.192 705.605 453.044C705.724 442.184 710.598 433.392 719.513 426.447C721.772 424.674 723.872 424.268 726.685 425.635C737.225 430.769 747.924 430.991 758.504 425.783C761.753 424.194 764.131 424.748 766.706 426.854C774.869 433.503 779.782 441.74 780.02 451.862C780.337 466.748 780.139 481.635 780.099 496.522C780.099 499.403 778.475 501.102 776.097 501.065C773.799 501.028 772.214 499.255 772.214 496.411C772.174 482.374 772.214 468.374 772.174 454.337C772.174 446.616 769.361 439.893 763.497 434.389C763.14 434.057 762.744 433.688 762.308 433.392C762.189 433.17 761.912 433.097 761.238 432.838Z" fill="white"/>
<path d="M614.27 317.033C610.348 318.178 606.9 319.36 603.334 320.173C595.251 321.983 587.365 320.912 579.678 318.141C575.954 316.812 575.914 316.812 573.338 319.582C568.583 324.68 566.008 330.59 566.008 337.424C566.008 351.091 566.008 364.722 566.008 378.39C566.008 379.609 566.047 380.865 565.77 382.047C565.374 383.857 563.551 385.113 561.808 385.076C559.985 385.039 558.479 383.783 558.083 381.825C557.885 380.865 557.885 379.867 557.885 378.87C557.885 365.461 557.885 352.052 557.885 338.643C557.885 327.856 562.045 318.769 570.604 311.455C573.576 308.943 576.152 308.168 580.074 310.052C589.941 314.78 600.164 314.965 610.07 310.126C614.033 308.205 616.806 308.796 619.937 311.492C628.02 318.474 632.458 326.97 632.577 337.202C632.735 351.35 632.656 365.498 632.617 379.646C632.617 383.118 631.23 385.002 628.733 385.039C626.078 385.113 624.692 383.229 624.692 379.424C624.692 365.756 624.692 352.126 624.652 338.458C624.612 330.479 621.72 323.535 615.499 317.92C615.142 317.661 614.706 317.366 614.27 317.033Z" fill="white"/>
<path d="M1059.25 668.069C1047.17 673.462 1034.69 673.647 1022.01 667.958C1016.82 671.985 1013.57 677.008 1012.22 683.103C1011.7 685.504 1011.51 687.979 1011.47 690.417C1011.39 703.568 1011.43 716.755 1011.43 729.906C1011.43 731.014 1011.51 732.122 1011.27 733.23C1010.91 735.114 1009.33 736.185 1007.31 736.149C1005.28 736.112 1003.9 734.966 1003.54 733.009C1003.42 732.27 1003.46 731.531 1003.46 730.792C1003.46 716.644 1003.38 702.497 1003.5 688.349C1003.58 677.636 1008.42 668.919 1017.01 661.937C1019.51 659.905 1021.89 659.573 1024.94 661.014C1035.24 665.89 1045.7 666.111 1056.04 661.161C1059.49 659.536 1062.07 659.868 1064.96 662.306C1072.92 668.956 1077.72 677.082 1077.96 687.093C1078.27 701.979 1078.11 716.866 1078.11 731.753C1078.11 734.265 1077.08 735.631 1075.26 736.075C1072.96 736.666 1070.7 735.373 1070.23 733.083C1070.03 732.011 1070.11 730.866 1070.11 729.758C1070.11 716.238 1070.11 702.681 1070.11 689.161C1070.11 681.515 1067.14 675.014 1061.51 669.547C1061.16 669.177 1060.76 668.845 1060.36 668.549C1060.16 668.364 1059.89 668.328 1059.25 668.069Z" fill="white"/>
<path d="M310.43 467.746C306.864 468.78 303.416 470.036 299.85 470.812C291.648 472.659 283.644 471.625 275.838 468.78C272.153 467.451 272.153 467.488 269.538 470.295C264.267 475.947 262.048 482.596 262.048 489.984C262.048 503.134 262.048 516.322 262.048 529.472C262.048 530.469 262.128 531.467 261.969 532.427C261.692 534.348 260.226 535.641 258.363 535.752C256.62 535.863 254.718 534.57 254.282 532.834C254.084 532.021 254.124 531.134 254.124 530.248C254.124 516.211 254.005 502.211 254.163 488.174C254.282 477.203 259.077 468.226 268.111 461.171C270.37 459.398 272.43 458.954 275.283 460.247C278.453 461.725 281.861 462.722 285.308 463.572C292.678 465.345 299.811 463.941 306.349 460.765C310.351 458.844 313.124 459.509 316.215 462.168C324.061 468.965 328.578 477.203 328.736 487.176C328.974 501.694 328.816 516.211 328.816 530.728C328.816 531.356 328.816 531.947 328.657 532.575C328.261 534.459 326.716 535.789 324.893 535.715C323.031 535.641 321.564 534.717 321.129 532.944C320.851 531.762 320.812 530.506 320.812 529.287C320.772 515.989 320.732 502.728 320.812 489.43C320.851 482.116 318.553 475.651 313.323 470.147C312.807 469.593 312.253 469.076 311.658 468.559C311.302 468.3 310.866 468.042 310.43 467.746Z" fill="white"/>
<path d="M617.797 743.536C617.797 736.518 617.877 729.499 617.758 722.481C617.639 715.388 614.667 709.367 609.476 704.233C608.129 702.903 606.94 702.533 604.999 703.309C594.023 707.779 582.967 707.779 571.991 703.383C569.812 702.533 568.623 703.088 567.237 704.491C561.927 709.884 559.193 716.275 559.153 723.589C559.114 736.998 559.153 750.407 559.114 763.816C559.114 765.035 559.153 766.291 558.955 767.51C558.638 769.431 557.093 770.65 555.191 770.687C553.209 770.724 551.506 769.32 551.189 767.288C551.109 766.697 551.149 766.069 551.149 765.441C551.149 751.294 551.03 737.146 551.189 722.998C551.307 712.175 556.102 703.309 564.938 696.291C567.276 694.407 569.416 693.89 572.427 695.367C582.967 700.502 593.706 700.613 604.285 695.441C607.336 693.964 609.635 694.333 612.171 696.328C620.056 702.607 624.89 710.439 625.603 720.117C626.079 726.359 625.92 732.639 625.96 738.919C626 747.267 626 755.652 625.96 764.001C625.96 765.22 625.92 766.476 625.722 767.658C625.405 769.468 624.098 770.428 622.196 770.613C620.373 770.798 618.59 769.616 618.114 767.769C617.837 766.697 617.877 765.589 617.837 764.481C617.797 757.573 617.797 750.555 617.797 743.536Z" fill="white"/>
<path d="M911.929 552.042C899.527 557.62 887.006 557.694 874.286 552.042C867.827 557.398 864.142 563.9 863.944 571.953C863.786 578.971 863.905 585.99 863.905 592.971C863.905 600.101 863.905 607.23 863.905 614.359C863.905 615.467 863.905 616.612 863.588 617.647C863.033 619.346 861.686 620.27 859.704 620.196C857.763 620.122 856.455 619.198 856.059 617.388C855.861 616.428 855.782 615.43 855.782 614.47C855.782 600.95 855.742 587.43 855.782 573.873C855.821 562.644 860.259 553.335 869.492 545.984C872.028 543.952 874.365 543.62 877.377 545.061C887.679 549.974 898.18 550.121 908.522 545.171C912.009 543.509 914.584 543.989 917.437 546.354C925.877 553.372 930.434 562.053 930.513 572.618C930.632 586.655 930.553 600.655 930.553 614.692C930.553 615.541 930.593 616.428 930.434 617.277C930.038 619.161 928.453 620.233 926.472 620.196C924.451 620.159 923.024 619.05 922.747 617.093C922.549 615.874 922.628 614.655 922.628 613.399C922.628 599.99 922.668 586.581 922.628 573.172C922.588 565.858 919.894 559.467 914.505 554.111C913.712 553.409 912.88 552.818 911.929 552.042Z" fill="white"/>
<path d="M269.102 567.446C269.102 559.097 269.102 550.712 269.102 542.364C269.102 538.891 270.529 537.044 273.064 537.008C275.64 536.971 277.067 538.781 277.067 542.29C277.106 558.285 277.067 574.279 277.106 590.237C277.106 591.937 277.185 593.71 277.621 595.335C279.325 602.132 285.665 606.232 293.233 605.567C300.088 604.939 305.557 599.546 305.755 592.897C305.953 586.876 305.794 580.855 305.794 574.834C305.794 564.38 305.794 553.926 305.794 543.472C305.794 542.253 305.874 540.997 306.111 539.815C306.468 537.968 307.974 537.155 309.796 536.971C311.54 536.786 313.283 538.19 313.719 540C313.917 540.812 313.917 541.699 313.917 542.548C313.917 558.913 313.997 575.277 313.917 591.604C313.838 602.723 306.23 611.108 294.898 612.807C281.623 614.802 269.538 605.419 269.142 592.823C269.142 592.565 269.142 592.343 269.142 592.084C269.102 583.921 269.102 575.683 269.102 567.446Z" fill="white"/>
<path d="M566.127 802.676C566.127 794.439 566.127 786.164 566.127 777.927C566.127 776.93 566.087 775.932 566.285 774.972C566.642 773.162 568.425 771.906 570.208 771.943C572.071 772.017 573.695 773.309 573.973 775.156C574.131 776.228 574.052 777.373 574.052 778.481C574.052 794.106 574.012 809.732 574.091 825.394C574.091 827.463 574.29 829.605 574.963 831.563C577.024 837.695 583.403 841.278 590.417 840.502C596.994 839.801 602.185 834.74 602.7 828.386C602.859 826.318 602.819 824.212 602.859 822.107C602.859 807.589 602.859 793.072 602.898 778.518C602.898 777.299 602.859 776.043 603.097 774.861C603.493 773.051 605.315 771.758 607.138 771.98C608.961 772.201 610.387 773.051 610.704 774.935C610.863 775.784 610.903 776.634 610.903 777.521C610.903 793.885 610.942 810.249 610.903 826.65C610.863 836.144 605.395 843.716 596.519 846.819C582.016 851.917 566.602 842.312 566.246 827.795C566.008 819.447 566.166 811.062 566.127 802.676C566.166 802.676 566.166 802.676 566.127 802.676Z" fill="white"/>
<path d="M765.2 532.649C765.2 540.886 765.279 549.124 765.161 557.361C765.042 566.818 759.138 574.427 749.984 577.309C735.957 581.704 721.415 572.506 720.583 558.728C720.543 557.989 720.543 557.25 720.543 556.512C720.543 540.406 720.543 524.3 720.543 508.195C720.543 507.197 720.504 506.2 720.662 505.24C720.979 503.43 722.287 502.469 724.189 502.248C725.972 502.026 727.914 503.282 728.31 505.055C728.587 506.237 728.508 507.493 728.508 508.712C728.508 524.559 728.468 540.443 728.548 556.29C728.548 558.211 728.785 560.243 729.459 562.09C731.757 568.295 738.493 571.842 745.507 570.733C751.926 569.736 756.919 564.343 757.196 558.063C757.236 557.066 757.196 556.105 757.196 555.108C757.196 539.483 757.196 523.857 757.196 508.269C757.196 507.16 757.156 506.015 757.434 504.981C757.909 503.208 759.811 502.026 761.634 502.321C763.496 502.617 764.804 503.54 765.042 505.387C765.161 506.496 765.2 507.604 765.2 508.712C765.2 516.654 765.2 524.67 765.2 532.649Z" fill="white"/>
<path d="M617.598 416.918C617.598 425.303 617.559 433.651 617.598 442.037C617.638 451.161 610.03 461.06 597.509 462.39C587.246 463.498 576.864 457.219 573.893 447.614C573.259 445.509 572.942 443.256 572.942 441.076C572.862 424.712 572.902 408.348 572.902 391.947C572.902 391.097 572.942 390.21 573.06 389.361C573.338 387.514 574.685 386.59 576.508 386.295C578.291 386.036 580.153 387.255 580.589 389.102C580.866 390.284 580.867 391.54 580.867 392.759C580.867 408.274 580.867 423.788 580.906 439.303C580.906 441.15 580.906 443.034 581.302 444.807C582.65 450.533 588.395 454.781 594.735 454.965C601.233 455.113 607.098 451.382 608.841 445.657C609.436 443.662 609.634 441.519 609.634 439.451C609.713 423.825 609.673 408.2 609.673 392.538C609.673 391.429 609.594 390.321 609.792 389.213C610.07 387.588 611.694 386.369 613.398 386.258C615.181 386.147 617.083 387.44 617.44 389.176C617.638 390.137 617.559 391.134 617.559 392.131C617.598 400.443 617.598 408.68 617.598 416.918Z" fill="white"/>
<path d="M92.2578 848.26C92.2578 840.022 92.2578 831.785 92.2578 823.547C92.2578 822.55 92.2181 821.552 92.3766 820.592C92.7333 818.671 94.1994 817.526 96.1806 817.489C98.1222 817.452 99.7468 818.634 100.103 820.481C100.302 821.552 100.222 822.698 100.222 823.806C100.222 839.911 100.222 856.017 100.222 872.123C100.222 878.292 103.59 883.057 109.296 885.199C118.331 888.635 128.593 882.577 128.871 873.416C129.069 867.025 128.91 860.634 128.91 854.244C128.91 844.049 128.91 833.816 128.91 823.621C128.91 822.513 128.871 821.368 129.109 820.333C129.544 818.523 131.288 817.378 133.19 817.489C135.131 817.6 136.479 818.782 136.796 820.777C136.915 821.515 136.875 822.254 136.875 822.993C136.875 839.468 136.756 855.943 136.915 872.418C136.994 882.059 130.02 890.629 119.955 892.993C106.721 896.133 93.2484 887.12 92.2974 874.45C92.2578 873.97 92.2181 873.452 92.2181 872.972C92.2578 864.735 92.2578 856.497 92.2578 848.26Z" fill="white"/>
<path d="M1063.1 768.286C1063.1 776.524 1063.22 784.761 1063.06 793.036C1062.86 805.226 1052.24 814.313 1039.24 813.611C1028.39 813.02 1019.27 804.708 1018.56 794.587C1018.28 790.524 1018.4 786.46 1018.4 782.397C1018.4 769.727 1018.4 757.057 1018.4 744.386C1018.4 743.278 1018.36 742.17 1018.48 741.062C1018.76 738.771 1020.06 737.626 1022.28 737.589C1024.58 737.552 1026.09 738.845 1026.33 741.246C1026.44 742.207 1026.37 743.204 1026.37 744.202C1026.37 760.196 1026.33 776.191 1026.37 792.186C1026.4 799.204 1030.76 804.339 1037.78 805.854C1046.02 807.627 1054.3 801.975 1055.01 794.144C1055.13 792.925 1055.09 791.669 1055.09 790.45C1055.09 774.935 1055.09 759.458 1055.09 743.943C1055.09 742.835 1055.01 741.69 1055.21 740.618C1055.65 738.587 1057.39 737.442 1059.49 737.589C1061.51 737.737 1062.78 738.882 1062.94 740.988C1063.1 743.315 1063.02 745.679 1063.02 748.006C1063.14 754.766 1063.1 761.526 1063.1 768.286Z" fill="white"/>
<path d="M915.535 652.444C915.535 660.57 915.615 668.697 915.496 676.824C915.298 689.272 904.837 698.36 891.602 697.695C881.419 697.178 872.503 689.568 871.156 680.111C870.918 678.412 870.839 676.676 870.839 674.977C870.799 659.351 870.799 643.726 870.839 628.101C870.839 626.882 870.839 625.626 871.116 624.444C871.513 622.634 872.82 621.747 874.801 621.71C876.783 621.673 878.13 622.597 878.566 624.37C878.883 625.552 878.843 626.808 878.843 628.027C878.843 643.541 878.843 659.056 878.883 674.534C878.883 676.602 878.922 678.782 879.556 680.739C881.379 686.797 887.878 690.898 894.257 690.381C901.271 689.79 906.739 684.803 907.571 678.228C907.729 677.009 907.69 675.753 907.69 674.534C907.69 659.167 907.69 643.763 907.69 628.396C907.69 627.399 907.65 626.438 907.729 625.441C907.967 623.003 909.394 621.71 911.692 621.747C913.99 621.784 915.337 623.077 915.575 625.552C915.654 626.401 915.615 627.288 915.615 628.138C915.535 636.19 915.535 644.317 915.535 652.444Z" fill="white"/>
<path d="M262.762 426.854C262.841 411.967 275.838 400.11 291.965 400.257C307.498 400.368 320.217 412.448 320.217 427.039C320.217 441.925 307.141 454.004 291.173 453.857C275.402 453.709 262.683 441.63 262.762 426.854ZM312.213 426.965C312.174 417.213 304.249 407.682 291.569 407.682C278.255 407.682 270.687 417.73 270.766 427.223C270.845 437.751 280.434 446.506 291.648 446.358C303.06 446.21 312.253 437.566 312.213 426.965Z" fill="white"/>
<path d="M559.826 661.9C559.866 647.124 572.665 635.193 588.514 635.119C604.166 635.045 617.282 647.198 617.361 661.863C617.44 676.713 604.364 688.829 588.356 688.755C572.466 688.718 559.787 676.75 559.826 661.9ZM609.198 662.085C609.278 651.483 600.085 642.765 588.712 642.655C577.459 642.544 567.91 651.225 567.791 661.752C567.672 671.246 575.201 681.33 588.554 681.33C601.828 681.293 609.278 671.246 609.198 662.085Z" fill="white"/>
<path d="M1040.79 654.18C1024.78 654.18 1012.26 642.507 1012.06 627.583C1011.9 614.285 1022.96 600.618 1040.95 600.728C1058.1 600.802 1069.52 613.583 1069.48 627.583C1069.52 642.396 1056.76 654.18 1040.79 654.18ZM1040.95 608.227C1029.3 608.19 1020.03 616.834 1020.06 627.62C1020.1 638.148 1029.54 646.866 1040.83 646.829C1052.16 646.829 1061.43 638.148 1061.43 627.51C1061.47 616.797 1052.4 608.264 1040.95 608.227Z" fill="white"/>
<path d="M85.9177 707.669C85.8385 692.745 98.3598 680.85 114.249 680.703C130.456 680.592 143.017 692.265 143.294 707.373C143.532 719.674 133.467 734.08 114.725 734.154C95.9823 734.265 85.68 719.969 85.9177 707.669ZM135.29 707.336C135.211 696.697 125.938 688.091 114.606 688.128C103.273 688.128 93.8822 696.882 93.8822 707.373C93.8822 718.122 103.234 726.766 114.844 726.729C126.176 726.692 135.369 717.975 135.29 707.336Z" fill="white"/>
<path d="M714.203 392.131C714.283 377.282 727.002 365.461 742.892 365.461C758.9 365.461 771.659 377.503 771.54 392.575C771.421 407.35 758.464 419.208 742.654 419.097C726.764 418.913 714.124 406.944 714.203 392.131ZM742.931 411.488C754.462 411.451 763.576 402.955 763.576 392.279C763.576 381.677 754.303 372.886 743.05 372.812C731.638 372.738 722.089 381.677 722.168 392.353C722.208 402.955 731.519 411.562 742.931 411.488Z" fill="white"/>
<path d="M893.306 538.264C877.337 538.338 864.658 526.665 864.499 511.741C864.341 496.892 876.941 485.145 892.91 484.849C909.077 484.554 922.034 497.113 921.915 511.557C921.796 526.443 909.275 538.227 893.306 538.264ZM872.503 511.483C872.424 522.084 881.617 530.802 892.989 530.913C904.361 530.987 913.792 522.454 913.95 511.889C914.109 501.177 904.718 492.311 893.187 492.274C881.775 492.237 872.582 500.807 872.503 511.483Z" fill="white"/>
</svg>
