<svg width="664" height="498" viewBox="0 0 664 498" fill="none" xmlns="http://www.w3.org/2000/svg">
<g clip-path="url(#clip0_140_278)">
<path d="M519.6 69.7001C522.4 52.8001 525.4 35.9001 528.5 19.0001C531 5.2001 541.5 -1.9999 555.4 0.500105C568.3 2.8001 581.3 5.2001 594.2 7.5001C610.8 10.5001 627.3 13.4001 643.9 16.4001C659 19.1001 666 28.7001 663.5 43.9001C660.5 61.6001 657.3 79.3001 654 97.0001C651.5 110.2 641.2 117.2 628 114.9C597.8 109.6 567.7 104.2 537.5 98.8001C527.4 97.0001 521 91.1001 519.8 82.6001M655.2 28.1001C651.2 26.1001 648.5 23.9001 645.6 23.4001C614.5 17.7001 583.4 12.1001 552.2 6.80011C549.3 6.30011 546.1 7.3001 542.4 7.7001C543.5 9.5001 543.9 10.4001 544.5 11.2001C558.8 28.5001 573.3 45.8001 587.5 63.2001C589.7 65.9001 591.4 65.3001 593.8 63.9001C605.1 57.2001 616.6 50.7001 627.9 44.1001C636.5 39.0001 645.1 34.0001 655.2 28.1001ZM640.3 107.6C638.5 105.2 637.5 103.9 636.4 102.7C628.7 93.5001 620.9 84.4001 613.2 75.2001C610.5 72.0001 608.1 66.9001 604.9 66.4001C601.5 65.8001 597.3 69.4001 593.6 71.4001C589.9 73.5001 587 72.9001 584.4 69.7001C581.8 66.5001 579.1 63.4001 576.3 60.0001C560.4 69.0001 544.8 77.9001 527.9 87.5001C531.7 89.4001 534.2 91.3001 536.9 91.8001C568.2 97.5001 599.5 103.1 630.8 108.5C633.5 109 636.5 108 640.3 107.6ZM553.5 65.7001C559.5 62.0001 565.6 58.5001 571.9 54.7001C560.3 40.8001 549.2 27.3001 537.1 12.7001C536 16.4001 535.2 18.7001 534.7 21.0001C533.5 27.2001 532.5 33.4001 531.4 39.6001C529.8 48.6001 528.7 57.7001 526.4 66.5001C525.2 71.2001 523.9 75.6001 526 80.7001C529.2 79.0001 532.3 77.3001 535.8 75.4001M610.4 61.6001C622 75.4001 633.3 88.7001 644.6 102.1C645.1 102 645.7 101.8 646.2 101.7C650.6 79.8001 654.7 57.8001 657.9 35.7001C657.4 35.5001 656.9 35.2001 656.5 35.0001C641.3 43.8001 626.2 52.5001 610.4 61.6001Z" fill="#9AA0A6"/>
<path d="M471.8 276.1C471 276.6 470.1 277.2 469.3 277.7C464.3 280.3 459.4 283 454.3 285.5C453.4 285.9 452 285.4 450.8 285.2C451.4 284.1 451.8 282.5 452.7 281.9C457.4 279.2 462.3 276.7 467.2 274.2C468.1 273.7 469.3 273.7 470.4 273.8C470.8 273.9 471.1 274.8 471.8 276.1Z" fill="#9AA0A6"/>
<path d="M177.8 196.8C177.1 197.9 176.8 199 176.2 199.1C175.4 199.3 174 199 173.7 198.5C170.4 193.1 167.2 187.7 164.1 182.2C163.8 181.6 164.1 180.3 164.6 179.6C164.9 179.3 166.5 179.3 166.8 179.7C170.6 185.3 174.2 191.1 177.8 196.8Z" fill="#9AA0A6"/>
<path d="M22.7 181.9C22.3 182.8 22 183.4 21.7 184C19.2 189 16.7 194.1 14 199C13.5 199.8 12 200.1 11 200.6C10.8 199.6 10 198.3 10.4 197.6C12.9 192.2 15.6 186.9 18.4 181.7C18.8 180.9 20.2 180.5 21.2 180.4C21.7 180.2 22.2 181.3 22.7 181.9Z" fill="#9AA0A6"/>
<path d="M47.4 311.3C54 313.6 60.2 315.7 66.2 317.9C66.8 318.1 67.5 320 67.3 320.2C66.6 320.9 65.3 321.8 64.6 321.6C58.7 319.6 52.8 317.3 46.9 315C46.3 314.7 45.6 313.4 45.8 312.6C45.9 311.9 47.1 311.5 47.4 311.3Z" fill="#9AA0A6"/>
<path d="M104 139.2C109.8 140.7 115.1 141.9 120.3 143.5C121.4 143.8 122 145.4 122.9 146.4C121.6 146.7 120.3 147.4 119.1 147.2C113.9 146.2 108.7 145.1 103.6 143.7C102.5 143.4 101.6 142 100.7 141.2C101.9 140.5 103 139.8 104 139.2Z" fill="#9AA0A6"/>
<path d="M50.4 153.8C49 155.5 48.5 156.3 47.7999 156.9C43.4 160.5 39.0999 164.1 34.5999 167.5C33.7999 168.1 32.3 167.8 31.2 167.9C31.4 166.9 31.1 165.4 31.7 164.9C36.4 160.9 41.1 157 46 153.3C46.7 152.9 48.3 153.6 50.4 153.8Z" fill="#9AA0A6"/>
<path d="M431.2 168.4C429 174.6 426.9 180.6 424.7 186.4C424.4 187.1 422.9 187.2 422 187.6C421.7 186.6 421.1 185.5 421.3 184.6C423 179.1 424.8 173.6 426.7 168.1C427 167.2 428.2 166.2 429 166.1C429.5 166.1 430.3 167.4 431.2 168.4Z" fill="#9AA0A6"/>
<path d="M153.6 477.1C150.5 484.6 148.1 490.7 145.4 496.7C145.2 497.2 143.5 497.6 143 497.3C142.4 496.9 141.9 495.5 142.2 494.8C144.3 489.1 146.5 483.4 148.9 477.7C149.2 477 150.3 476.3 151.2 476.2C152 476.2 152.9 476.8 153.6 477.1Z" fill="#9AA0A6"/>
<path d="M394.7 295.2C388.6 294 383.4 293.1 378.2 291.8C377.1 291.5 376.2 290.1 375.3 289.2C376.5 288.8 377.8 287.8 378.9 288C384.1 288.8 389.3 289.7 394.5 290.8C395.7 291.1 396.7 292.3 397.7 293C396.5 293.9 395.4 294.7 394.7 295.2Z" fill="#9AA0A6"/>
<path d="M352.9 49.6001C359 51.4001 364.7 53.0001 370.3 54.8001C371.1 55.1001 371.4 56.7001 372 57.7001C371 58.0001 369.9 58.6001 369 58.4001C363.5 57.1001 358.1 55.7001 352.7 54.1001C351.7 53.8001 350.9 52.6001 350 51.8001C350.9 51.2001 351.8 50.4001 352.9 49.6001Z" fill="#9AA0A6"/>
<path d="M0 256.3C0.9 255.3 1.6 254.4 2.4 253.5C3.2 254.4 4.3 255.2 4.6 256.2C6.1 261.4 7.4 266.7 8.5 272C8.7 273.1 7.8 274.4 7.4 275.7C6.5 274.9 5.1 274.3 4.8 273.3C3.1 267.8 1.6 262.3 0 256.3Z" fill="#9AA0A6"/>
<path d="M258.5 195.6C259 196.6 259.4 197.7 260 198.7C262.8 203.4 265.9 207.9 268.5 212.7C269 213.7 268.5 215.2 268.5 216.5C267.4 216 265.9 215.8 265.3 215C262.2 210.3 259.2 205.5 256.5 200.6C255.9 199.6 256.4 198 256.4 196.7C257.1 196.3 257.8 195.9 258.5 195.6Z" fill="#9AA0A6"/>
<path d="M327.1 265.9C325.9 266.3 324.6 267.3 324 266.9C318.5 263.5 313.1 259.9 307.8 256.2C307.3 255.9 307 254.4 307.3 254.1C307.9 253.5 309.3 252.9 309.7 253.1C315.2 256.5 320.6 260.1 325.9 263.7C326.3 264.1 326.4 264.7 327.1 265.9Z" fill="#9AA0A6"/>
<path d="M570.4 140.7C569.9 139.2 569.1 138 569.3 137.2C571.3 131.4 573.5 125.7 575.8 120C576.1 119.3 577.5 119 578.5 118.5C578.9 119.3 579.7 120.4 579.5 121C577.3 127.1 575 133.1 572.6 139.1C572.4 139.5 571.6 139.8 570.4 140.7Z" fill="#9AA0A6"/>
<path d="M500.8 249.7C500.5 251.2 500.6 253.1 499.7 254C495.8 257.8 491.6 261.4 487.3 264.8C486.5 265.5 485 265.3 483.8 265.5C484 264.4 483.8 262.8 484.5 262.1C489.2 257.7 494.1 253.5 499 249.3C499.6 249.5 500.2 249.6 500.8 249.7Z" fill="#9AA0A6"/>
<path d="M432.6 143.2C432.6 145.5 432.8 146.5 432.5 147.2C432 148.4 431.2 149.4 430.5 150.4C429.9 149.4 428.8 148.5 428.7 147.4C427.9 142 427.2 136.6 426.7 131.2C426.6 130.1 427.4 129 427.8 127.8C428.7 128.7 430.3 129.4 430.5 130.5C431.5 135.2 432.1 139.9 432.6 143.2Z" fill="#9AA0A6"/>
<path d="M82.2 139.2C83.2 139.9 84.2 140.6 85.1 141.3C84.3 142.1 83.6 143.4 82.6 143.7C77.2 145.2 71.7 146.5 66.2 147.6C65.2 147.8 64 146.9 62.8 146.6C63.5 145.7 64.1 144.2 65 143.9C70.6 142.3 76.2 140.9 82.2 139.2Z" fill="#9AA0A6"/>
<path d="M138.4 152.1C139.4 152.6 140.2 152.9 140.8 153.4C145.2 156.9 149.6 160.4 153.9 164.1C154.6 164.7 154.5 166.3 154.7 167.4C153.5 167.3 152 167.6 151.2 166.9C146.7 163.5 142.3 160 138 156.3C137.3 155.7 136.8 154.5 136.7 153.4C136.7 153.2 137.8 152.6 138.4 152.1Z" fill="#9AA0A6"/>
<path d="M526.7 222.2C526.2 223.2 525.8 223.9 525.3 224.6C521.9 228.9 518.6 233.3 515 237.4C514.3 238.3 512.6 238.3 511.3 238.7C511.5 237.4 511.3 235.8 512 234.9C515.3 230.5 518.7 226.2 522.3 222C522.9 221.2 524.2 220.8 525.2 220.6C525.5 220.5 526.1 221.6 526.7 222.2Z" fill="#9AA0A6"/>
<path d="M190 233.5C189.2 234.3 188.7 235.4 187.8 235.7C187.3 235.9 186 234.8 185.8 234.1C184.1 228.2 182.4 222.3 180.9 216.4C180.7 215.6 181.7 214.5 182.2 213.6C183 214.1 184.3 214.4 184.5 215.1C186.4 221 188.1 227 190 233.5Z" fill="#9AA0A6"/>
<path d="M199.5 322.2C198.9 321.8 198.1 321.2 197.2 320.6C198 319.7 198.6 318.3 199.5 318.1C205.1 316.7 210.8 315.5 216.5 314.4C217.4 314.2 218.5 315.4 219.6 315.9C218.9 316.7 218.3 317.9 217.5 318.1C211.7 319.5 205.9 320.7 199.5 322.2Z" fill="#9AA0A6"/>
<path d="M30.7999 305.6C29.7999 305.1 28.9999 304.8 28.3999 304.3C24.2999 300.5 20.0999 296.7 16.1999 292.7C15.4999 292 15.8999 290.2 15.7999 288.9C16.8999 289.2 18.2999 289.3 19.0999 290C23.1999 293.6 27.0999 297.4 30.9999 301.2C31.6999 301.9 32.1999 303.1 32.3999 304.1C32.3999 304.5 31.3999 305 30.7999 305.6Z" fill="#9AA0A6"/>
<path d="M280.1 227.5C280.9 228.1 281.7 228.5 282.3 229.1C286.3 232.9 290.3 236.6 294.1 240.5C294.9 241.3 294.7 243 295 244.2C293.8 244 292.3 244.2 291.6 243.5C287.4 239.7 283.3 235.8 279.4 231.9C278.7 231.2 278.4 229.9 278.4 228.9C278.3 228.5 279.4 228 280.1 227.5Z" fill="#9AA0A6"/>
<path d="M390.9 232.3C390.1 233.3 389.5 234.3 388.7 235C384.9 238.4 381.1 241.8 377 245C376 245.8 374.2 245.5 372.8 245.8C373.3 244.6 373.5 243 374.3 242.1C378.3 238.4 382.4 234.8 386.6 231.4C387.3 230.8 388.6 230.7 389.7 230.6C390.1 230.6 390.4 231.6 390.9 232.3Z" fill="#9AA0A6"/>
<path d="M195.2 267.8C194.3 269.8 193.4 271.8 192.4 273.8C191.7 271.8 190.6 269.9 190.2 267.8C189.6 263.5 189.2 259.2 189 254.9C188.9 253.7 189.9 252.4 190.4 251.1C191.3 252.2 192.8 253.3 193 254.5C193.7 258.8 193.9 263.1 194.3 267.4C194.7 267.6 195 267.7 195.2 267.8Z" fill="#9AA0A6"/>
<path d="M358.3 254C359.1 254.4 359.9 254.6 360.1 255C360.4 255.7 360.6 257 360.2 257.2C354.4 261 348.6 264.6 342.6 268.2C342.6 268.2 341 265.8 341 265.7C346.8 261.8 352.5 257.9 358.3 254Z" fill="#9AA0A6"/>
<path d="M361.1 283.9C359.9 284.3 358.6 285.2 357.8 284.9C352 282.3 346.4 279.6 340.7 276.7C340.1 276.4 339.9 275 340 274.2C340.1 273.8 341.5 273.1 342 273.3C348 276.1 354 279 360 281.9C360.4 282.1 360.5 282.7 361.1 283.9Z" fill="#9AA0A6"/>
<path d="M256.8 108.5C256.4 107.1 255.5 105.6 255.9 104.9C259.2 99.6002 262.6 94.3002 266.2 89.2002C266.6 88.6002 268.2 88.3002 268.7 88.7002C269.3 89.1002 269.7 90.7002 269.3 91.2002C265.9 96.7002 262.3 102 258.8 107.4C258.6 107.7 258 107.8 256.8 108.5Z" fill="#9AA0A6"/>
<path d="M294.2 291.7C292.3 293.4 291.7 294.4 290.7 294.7C285.5 296.8 280.2 298.9 274.9 300.8C273.9 301.1 272.6 300.4 271.4 300.1C272 299.1 272.4 297.6 273.3 297.2C278.6 294.9 284.1 292.8 289.5 290.9C290.5 290.6 291.9 291.3 294.2 291.7Z" fill="#9AA0A6"/>
<path d="M547.6 190C547.2 190.9 547 191.5 546.7 192.1C543.8 196.9 540.9 201.7 537.8 206.4C537.2 207.2 535.7 207.5 534.6 208C534.5 206.9 533.8 205.4 534.3 204.6C537.2 199.6 540.2 194.6 543.4 189.8C543.9 189 545.2 188.6 546.2 188.4C546.6 188.3 547.2 189.5 547.6 190Z" fill="#9AA0A6"/>
<path d="M402.1 220.2C401.6 219.9 400.7 219.6 400.7 219.2C400.5 218.3 400.5 217.1 401 216.5C404.5 211.7 408 206.9 411.7 202.3C412.2 201.6 413.7 201.7 414.7 201.4C414.9 202.3 415.5 203.5 415.2 204C411.5 209.2 407.5 214.3 403.7 219.5C403.3 219.8 402.7 219.9 402.1 220.2Z" fill="#9AA0A6"/>
<path d="M192.1 330.7C191.1 336.9 190.4 342.3 189.4 347.7C189.2 348.7 187.9 349.5 187.1 350.3C186.6 349.3 185.5 348.2 185.6 347.2C186.2 341.7 186.9 336.3 187.9 330.9C188.1 329.8 189.5 328.8 190.3 327.8C191 328.9 191.7 330 192.1 330.7Z" fill="#9AA0A6"/>
<path d="M402.5 81.5001C401.2 81.0001 399.7 80.8001 398.7 79.9001C394.6 76.3001 390.6 72.6001 386.8 68.7001C386 67.9001 385.9 66.5001 385.5 65.4001C386.5 65.3001 387.9 64.7001 388.4 65.1001C393.7 69.7001 398.8 74.5001 403.9 79.3001C403.4 80.0001 403 80.7001 402.5 81.5001Z" fill="#9AA0A6"/>
<path d="M190.7 300.6C190.7 297.8 190.5 295 190.8 292.2C190.9 291.2 192.1 290.3 192.9 289.4C193.5 290.2 194.7 291.1 194.7 291.9C194.6 297.8 194.4 303.8 194 309.7C193.9 310.6 192.5 311.3 191.6 312.1C191 311.1 190 310 190 309C190 306.2 190.4 303.4 190.6 300.6H190.7Z" fill="#9AA0A6"/>
<path d="M411.9 91.7002C413.8 93.4002 414.7 93.9002 415.1 94.6002C417.9 99.5002 420.7 104.3 423.3 109.3C423.8 110.2 422.9 111.8 422.7 113.1C421.7 112.5 420.3 112 419.8 111.1C416.9 106.3 414.2 101.4 411.6 96.4002C411.1 95.5002 411.7 94.0002 411.9 91.7002Z" fill="#9AA0A6"/>
<path d="M279.7 77.8002C279.5 76.6002 278.9 74.9002 279.3 74.6002C284.7 70.6002 290.3 66.7002 295.9 63.0002C296.3 62.8002 297.6 63.6002 298.2 64.3002C298.4 64.6002 297.9 65.9002 297.4 66.3002C292.3 70.0002 287.1 73.5002 281.9 77.1002C281.6 77.3002 281 77.4002 279.7 77.8002Z" fill="#9AA0A6"/>
<path d="M101 328.4C95 327.5 90 327 85.1 326.1C84.1 325.9 83.4 324.6 82.5 323.8C83.5 323.3 84.6 322.2 85.6 322.3C90.6 322.8 95.5 323.3 100.4 324.2C102 324.5 103.5 325.8 105.1 326.6C103.5 327.3 101.8 328.1 101 328.4Z" fill="#9AA0A6"/>
<path d="M244 141.1C245.3 135.4 246.4 130.1 247.8 124.8C248.1 123.8 249.4 123.1 250.3 122.3C250.7 123.5 251.7 124.8 251.5 125.9C250.7 131.1 249.6 136.3 248.4 141.5C248.1 142.7 246.8 143.6 246 144.6C245.3 143.4 244.6 142.2 244 141.1Z" fill="#9AA0A6"/>
<path d="M177 405.5C175.1 411.8 173.3 417.8 171.3 423.8C171.1 424.4 169.6 425.1 169 424.9C168.4 424.7 167.6 423.3 167.8 422.6C169.4 416.5 171.2 410.4 173.1 404.4C173.3 403.8 174.8 403.1 175.4 403.3C176.1 403.5 176.4 404.7 177 405.5Z" fill="#9AA0A6"/>
<path d="M165.9 442.1C163.7 448.4 161.6 454.5 159.3 460.5C159.1 461.1 157.5 461.7 157 461.4C156.4 461.1 155.7 459.7 155.9 459.1C157.8 453.1 159.8 447.2 162 441.3C162.2 440.7 163.6 440 164.3 440.1C164.8 440.3 165.3 441.4 165.9 442.1Z" fill="#9AA0A6"/>
<path d="M164 327.3C163.5 327.3 162.9 327.6 162.5 327.4C161.3 326.9 160.2 326.2 159 325.6C159.9 324.9 160.8 323.6 161.8 323.5C167.3 322.6 172.9 321.9 178.5 321.4C179.5 321.3 180.6 322.4 181.6 322.9C180.8 323.7 180 325.1 179.1 325.3C174.1 326.2 169 326.8 163.9 327.4C164 327.4 164 327.3 164 327.3Z" fill="#9AA0A6"/>
<path d="M305.5 285.3C307.3 283.7 307.8 282.8 308.7 282.4C313.7 279.8 318.7 277.3 323.8 274.9C324.8 274.5 326.1 275 327.3 275C326.7 276.2 326.4 277.9 325.5 278.4C320.6 281.1 315.5 283.6 310.4 285.9C309.5 286.4 307.9 285.7 305.5 285.3Z" fill="#9AA0A6"/>
<path d="M335.5 51.8001C334 53.0001 333.3 53.9001 332.5 54.1001C326.8 55.6001 321 57.0001 315.2 58.2001C314.3 58.4001 313.3 57.6001 312.3 57.2001C312.8 56.3001 313.2 54.8001 313.9 54.6001C319.8 53.0001 325.7 51.6001 331.7 50.3001C332.5 50.1001 333.7 51.1001 335.5 51.8001Z" fill="#9AA0A6"/>
<path d="M416.9 295.6C416 295 414.7 294.3 413.5 293.5C414.7 292.7 415.9 291.5 417.2 291.2C422.2 290.2 427.3 289.4 432.4 288.7C433.5 288.6 434.6 289.3 435.8 289.7C435 290.7 434.3 292.3 433.3 292.5C428.1 293.7 422.8 294.5 416.9 295.6Z" fill="#9AA0A6"/>
<path d="M236.9 313.4C236.1 312.8 234.9 312.3 234.8 311.7C234.7 311 235.4 309.7 236.1 309.4C242.1 307.5 248.2 305.7 254.3 304C254.9 303.8 256.4 304.7 256.5 305.3C256.6 306 255.9 307.4 255.2 307.6C249.2 309.6 243.2 311.5 236.9 313.4Z" fill="#9AA0A6"/>
<path d="M565.5 156.3C562.4 162.5 559.4 168.4 556.2 174.2C556 174.7 554.2 174.8 553.7 174.4C553.2 174 552.9 172.5 553.2 171.8C555.8 166.2 558.5 160.7 561.3 155.2C561.6 154.5 563 153.9 563.7 154.1C564.4 154.4 564.9 155.5 565.5 156.3Z" fill="#9AA0A6"/>
<path d="M244.1 163.1C244.7 162.2 245.3 161.2 245.9 160.2C246.8 161.2 248.1 162 248.4 163.1C249.7 168.4 250.8 173.7 251.8 179.1C252 180.1 251.2 181.3 250.8 182.4C249.9 181.7 248.3 181.2 248.1 180.3C246.6 174.8 245.5 169.2 244.1 163.1Z" fill="#9AA0A6"/>
<path d="M132.1 329.3C129.3 329.3 126.4 329.5 123.6 329.2C122.6 329.1 121.6 328 120.6 327.3C121.5 326.6 122.5 325.3 123.4 325.3C129 325 134.7 325 140.3 325.1C141.3 325.1 142.3 326.3 143.2 326.9C142.3 327.6 141.4 328.8 140.4 328.9C137.6 329.2 134.8 329 131.9 329C132.1 329.1 132.1 329.2 132.1 329.3Z" fill="#9AA0A6"/>
<path d="M180.7 382.2C181.1 377.1 181.2 372.6 181.8 368.2C181.9 367.3 183.4 366.5 184.3 365.7C184.8 366.8 185.8 368 185.6 369C184.6 374.4 183.4 379.7 182.1 385C181.8 386.1 180.8 387.1 180 388C179.8 388.2 178.4 387.6 178.4 387.3C178.3 385.9 178.3 384.4 178.8 383.1C178.8 382.5 180.2 382.4 180.7 382.2Z" fill="#9AA0A6"/>
<path d="M3.40003 235C2.70003 233.5 1.20003 232 1.40003 230.6C1.90003 226.2 2.90003 221.8 3.90003 217.5C4.10003 216.7 5.00003 215.9 5.80003 215.5C6.20003 215.3 7.50003 216.1 7.60003 216.6C7.70003 217.4 7.50003 218.8 6.90003 219.2C3.50003 221.7 3.00003 224.4 5.10003 228.2C6.00003 229.8 5.00003 232.3 4.80003 234.4C4.30003 234.7 3.80003 234.8 3.40003 235Z" fill="#9AA0A6"/>
</g>
<defs>
<clipPath id="clip0_140_278">
<rect width="664" height="497.4" fill="white"/>
</clipPath>
</defs>
</svg>
